<svg width="20" height="21" viewBox="0 0 20 21" fill="none" xmlns="http://www.w3.org/2000/svg">
<path d="M17 11.2873H5V5.66227C4.99942 5.45044 5.04086 5.24059 5.12193 5.04489C5.203 4.84918 5.32208 4.67149 5.47228 4.52212L5.48478 4.50962C5.72018 4.27457 6.0224 4.11792 6.35016 4.06109C6.67792 4.00425 7.01524 4.04999 7.31603 4.19205C7.03196 4.66436 6.91389 5.21806 6.98057 5.76517C7.04726 6.31228 7.29488 6.8214 7.68409 7.21165L8.02631 7.55387L7.39641 8.1838L8.10347 8.89087L8.73338 8.26096L12.2237 4.77074L12.8536 4.14083L12.1465 3.43374L11.5165 4.06365L11.1743 3.72143C10.7646 3.31284 10.2245 3.06098 9.64812 3.00972C9.07176 2.95846 8.49568 3.11106 8.02028 3.44093C7.51897 3.12434 6.9249 2.98766 6.33564 3.05336C5.74638 3.11905 5.19699 3.38321 4.77772 3.80243L4.76522 3.81493C4.52186 4.05696 4.32892 4.34485 4.19757 4.66195C4.06622 4.97905 3.99907 5.31905 4 5.66227V11.2873H3V12.2873H4V13.2466C3.99998 13.3273 4.01298 13.4073 4.0385 13.4838L4.96875 16.2744C5.01839 16.4238 5.11385 16.5538 5.24156 16.6459C5.36928 16.7379 5.52275 16.7874 5.68019 16.7873H6.08331L5.71875 18.0373H6.76041L7.125 16.7873H13.6281L14.0031 18.0373H15.0469L14.6719 16.7873H15.3197C15.4771 16.7874 15.6306 16.738 15.7584 16.6459C15.8861 16.5538 15.9816 16.4239 16.0312 16.2744L16.9614 13.4838C16.987 13.4073 17 13.3273 17 13.2466V12.2873H18V11.2873H17ZM8.39125 4.42852C8.66675 4.15362 9.04004 3.99924 9.42923 3.99924C9.81842 3.99924 10.1917 4.15362 10.4672 4.42852L10.8094 4.77074L8.73347 6.84665L8.39125 6.50449C8.11637 6.22898 7.96199 5.85569 7.96199 5.46651C7.96199 5.07732 8.11637 4.70403 8.39125 4.42852ZM16 13.206L15.1396 15.7873H5.86037L5 13.206V12.2873H16V13.206Z" fill="url(#paint0_linear)"/>
<defs>
<linearGradient id="paint0_linear" x1="3.72289" y1="-2.0124" x2="16.0141" y2="-1.65053" gradientUnits="userSpaceOnUse">
<stop stop-color="#FF844B"/>
<stop offset="1" stop-color="#FA5622"/>
</linearGradient>
</defs>
</svg>
