<svg width="20" height="15" viewBox="0 0 20 15" fill="none" xmlns="http://www.w3.org/2000/svg">
<path d="M4.60714 11.1071H16.3929V12.7143H18V8.61071C18 7.90357 17.7321 7.26071 17.3036 6.76786V4.14286C17.3036 2.96429 16.3393 2 15.1607 2H11.5714C11.175 2 10.8 2.12857 10.5 2.34286C10.2 2.12857 9.825 2 9.42857 2H5.83929C4.66071 2 3.69643 2.96429 3.69643 4.14286V6.76786C3.26786 7.26071 3 7.90357 3 8.61071V12.7143H4.60714V11.1071ZM11.3036 3.60714H15.5893V5.75H11.3036V3.60714ZM5.41071 3.60714H9.69643V5.75H5.41071V3.60714ZM4.60714 8.42857C4.60714 7.83929 5.08929 7.35714 5.67857 7.35714H15.3214C15.9107 7.35714 16.3929 7.83929 16.3929 8.42857V9.5H4.60714V8.42857Z" fill="url(#paint0_linear)"/>
<defs>
<linearGradient id="paint0_linear" x1="3.72289" y1="-1.57141" x2="16.0038" y2="-1.06396" gradientUnits="userSpaceOnUse">
<stop stop-color="#FF844B"/>
<stop offset="1" stop-color="#FA5622"/>
</linearGradient>
</defs>
</svg>
