<svg width="20" height="20" viewBox="0 0 20 20" fill="none" xmlns="http://www.w3.org/2000/svg">
<path d="M10.0002 7.0835H5.8335L3.3335 9.16683H2.50016C1.57516 9.16683 0.833496 9.9085 0.833496 10.8335V13.3335H2.64183C3.00016 14.3335 3.94183 15.0002 5.00016 15.0002C6.0585 15.0002 7.00016 14.3335 7.35016 13.3335H12.6418C13.0002 14.3335 13.9418 15.0002 15.0002 15.0002C16.0585 15.0002 17.0002 14.3335 17.3502 13.3335H19.1668V12.5002C19.1668 11.5752 18.3085 11.2752 17.5002 10.8335L10.0002 7.0835ZM4.37516 10.0002L6.25016 8.3335H9.5835L12.9168 10.0002H4.37516ZM5.00016 11.2502C5.33168 11.2502 5.64963 11.3819 5.88405 11.6163C6.11847 11.8507 6.25016 12.1686 6.25016 12.5002C6.25016 12.8317 6.11847 13.1496 5.88405 13.384C5.64963 13.6185 5.33168 13.7502 5.00016 13.7502C4.66864 13.7502 4.3507 13.6185 4.11628 13.384C3.88186 13.1496 3.75016 12.8317 3.75016 12.5002C3.75016 12.1686 3.88186 11.8507 4.11628 11.6163C4.3507 11.3819 4.66864 11.2502 5.00016 11.2502ZM15.0002 11.2502C15.3317 11.2502 15.6496 11.3819 15.884 11.6163C16.1185 11.8507 16.2502 12.1686 16.2502 12.5002C16.2502 12.8317 16.1185 13.1496 15.884 13.384C15.6496 13.6185 15.3317 13.7502 15.0002 13.7502C14.6686 13.7502 14.3507 13.6185 14.1163 13.384C13.8819 13.1496 13.7502 12.8317 13.7502 12.5002C13.7502 12.1686 13.8819 11.8507 14.1163 11.6163C14.3507 11.3819 14.6686 11.2502 15.0002 11.2502Z" fill="url(#paint0_linear)"/>
<defs>
<linearGradient id="paint0_linear" x1="1.71703" y1="4.44462" x2="16.6827" y2="5.46751" gradientUnits="userSpaceOnUse">
<stop stop-color="#FF844B"/>
<stop offset="1" stop-color="#FA5622"/>
</linearGradient>
</defs>
</svg>
