<svg width="20" height="20" viewBox="0 0 20 20" fill="none" xmlns="http://www.w3.org/2000/svg">
<path d="M17.3332 10.6665C17.3332 15.0799 14.4132 18.6665 9.99984 18.6665C5.5865 18.6665 2.6665 15.0799 2.6665 10.6665C4.13955 10.6789 5.57233 11.1488 6.76666 12.0111C7.961 12.8734 8.85785 14.0856 9.33317 15.4799V9.3332H5.99984C5.4694 9.3332 4.9607 9.12248 4.58562 8.74741C4.21055 8.37234 3.99984 7.86363 3.99984 7.3332V3.3332C3.99984 3.19328 4.04386 3.0569 4.12568 2.94339C4.20749 2.82988 4.32294 2.74499 4.45569 2.70074C4.58843 2.65649 4.73173 2.65514 4.86528 2.69686C4.99884 2.73858 5.11588 2.82126 5.19984 2.9332L7.23984 5.59986L9.43984 1.59986C9.50027 1.5063 9.58319 1.42937 9.68102 1.3761C9.77884 1.32283 9.88845 1.29492 9.99984 1.29492C10.1112 1.29492 10.2208 1.32283 10.3187 1.3761C10.4165 1.42937 10.4994 1.5063 10.5598 1.59986L12.7598 5.59986L14.7998 2.9332C14.8838 2.82126 15.0008 2.73858 15.1344 2.69686C15.2679 2.65514 15.4112 2.65649 15.544 2.70074C15.6767 2.74499 15.7922 2.82988 15.874 2.94339C15.9558 3.0569 15.9998 3.19328 15.9998 3.3332V7.3332C15.9998 7.86363 15.7891 8.37234 15.4141 8.74741C15.039 9.12248 14.5303 9.3332 13.9998 9.3332H10.6665V15.4799C11.1418 14.0856 12.0387 12.8734 13.233 12.0111C14.4273 11.1488 15.8601 10.6789 17.3332 10.6665Z" fill="url(#paint0_linear)"/>
<defs>
<linearGradient id="paint0_linear" x1="3.37333" y1="-4.49559" x2="15.3943" y2="-4.19604" gradientUnits="userSpaceOnUse">
<stop stop-color="#FF844B"/>
<stop offset="1" stop-color="#FA5622"/>
</linearGradient>
</defs>
</svg>
