<svg width="20" height="20" viewBox="0 0 20 20" fill="none" xmlns="http://www.w3.org/2000/svg">
<path d="M15.8257 1.6665H7.50815C6.58232 1.6665 5.83315 2.41567 5.83315 3.3415V8.039L1.91482 11.9073C1.79742 12.0235 1.71716 12.1718 1.68422 12.3336C1.65129 12.4954 1.66717 12.6634 1.72985 12.8162C1.79253 12.9689 1.89918 13.0996 2.03626 13.1917C2.17335 13.2837 2.3347 13.333 2.49982 13.3332V17.4998C2.49982 17.7209 2.58762 17.9328 2.7439 18.0891C2.90018 18.2454 3.11214 18.3332 3.33315 18.3332H16.6665C16.8875 18.3332 17.0995 18.2454 17.2557 18.0891C17.412 17.9328 17.4998 17.7209 17.4998 17.4998V3.34067C17.4998 2.41567 16.7515 1.6665 15.8257 1.6665ZM9.10149 12.5923V16.6665H4.16649V12.0265L6.65565 9.569L9.10149 12.0715V12.5923ZM10.8332 7.49984H9.16649V5.83317H10.8332V7.49984ZM14.1665 14.1665H12.4998V12.4998H14.1665V14.1665ZM14.1665 10.8332H12.4998V9.1665H14.1665V10.8332ZM14.1665 7.49984H12.4998V5.83317H14.1665V7.49984Z" fill="url(#paint0_linear)"/>
<path d="M5.8335 12.5H7.50016V14.1667H5.8335V12.5Z" fill="url(#paint1_linear)"/>
<defs>
<linearGradient id="paint0_linear" x1="2.43048" y1="-3.88903" x2="15.4048" y2="-3.52527" gradientUnits="userSpaceOnUse">
<stop stop-color="#FF844B"/>
<stop offset="1" stop-color="#FA5622"/>
</linearGradient>
<linearGradient id="paint1_linear" x1="5.91382" y1="11.9444" x2="7.2795" y2="11.9848" gradientUnits="userSpaceOnUse">
<stop stop-color="#FF844B"/>
<stop offset="1" stop-color="#FA5622"/>
</linearGradient>
</defs>
</svg>
