<svg width="20" height="20" viewBox="0 0 20 20" fill="none" xmlns="http://www.w3.org/2000/svg">
<path d="M10.38 14.0625C12.7221 14.0625 14.294 12.2564 14.375 10C14.294 7.74358 12.5867 5.9375 10.2445 5.9375C7.90264 5.9375 6.3299 7.74358 6.25 10C6.32963 12.2564 8.03779 14.0625 10.38 14.0625Z" fill="url(#paint0_linear)"/>
<path d="M10.2342 3.125C6.43732 3.125 3.35889 6.20312 3.35889 10C3.35889 13.7966 6.43764 16.875 10.2342 16.875C14.0308 16.875 17.1092 13.7966 17.1092 10C17.1092 6.20312 14.0308 3.125 10.2342 3.125ZM10.2339 15C7.47232 15 5.23357 12.8372 5.23357 10.1684C5.23357 10.1116 5.24139 10.0563 5.24326 10C5.24139 9.94375 5.23357 9.88812 5.23357 9.83156C5.23357 7.16281 7.47264 5 10.2339 5C12.9955 5 15.2339 7.16281 15.2339 9.83156C15.2339 9.88812 15.2273 9.94375 15.2258 10C15.2276 10.0563 15.2339 10.1116 15.2339 10.1684C15.2336 12.8372 12.9955 15 10.2339 15Z" fill="url(#paint1_linear)"/>
<path d="M1.08795 2.31909C1.16295 2.02503 1.31138 2.31565 1.31138 2.31565C1.31138 2.31565 1.36326 5.3594 1.70076 5.39253C2.03826 5.42565 1.77826 2.26065 2.17763 2.20003C2.54888 2.14097 2.33701 5.44284 2.67513 5.4094C3.01201 5.37378 3.06888 2.33128 3.06888 2.33128C3.06888 2.33128 3.21888 2.04097 3.29295 2.33284C4.20795 5.92972 3.46763 7.40003 3.46763 7.40003C3.46763 7.40003 3.34263 7.70909 3.04576 7.71065C3.01795 7.70909 3.03888 16.2532 3.03701 17.4019C3.03763 17.9603 1.31826 17.9432 1.3192 17.3872C1.32045 16.2385 1.35388 7.69534 1.32701 7.69597C1.0292 7.69597 0.904509 7.38722 0.904509 7.38722C0.904509 7.38722 0.167009 5.91784 1.08795 2.31909Z" fill="url(#paint2_linear)"/>
<path d="M17.3812 2.1875C17.7681 2.18656 19.3731 3.34375 19.375 7.64438C19.3769 9.01969 18.6266 9.01938 18.6278 9.87969C18.6291 10.7384 18.6337 17.5691 18.6337 17.5691C18.6337 17.5691 17.8106 18.1337 17.1987 17.5428L17.1875 2.30969C17.1881 2.31 17.1859 2.18719 17.3812 2.1875Z" fill="url(#paint3_linear)"/>
<defs>
<linearGradient id="paint0_linear" x1="6.64157" y1="3.22918" x2="13.2993" y2="3.42568" gradientUnits="userSpaceOnUse">
<stop stop-color="#FF844B"/>
<stop offset="1" stop-color="#FA5622"/>
</linearGradient>
<linearGradient id="paint1_linear" x1="4.02155" y1="-1.45832" x2="15.2887" y2="-1.12576" gradientUnits="userSpaceOnUse">
<stop stop-color="#FF844B"/>
<stop offset="1" stop-color="#FA5622"/>
</linearGradient>
<linearGradient id="paint2_linear" x1="0.775623" y1="-3.02083" x2="3.33877" y2="-3.00569" gradientUnits="userSpaceOnUse">
<stop stop-color="#FF844B"/>
<stop offset="1" stop-color="#FA5622"/>
</linearGradient>
<linearGradient id="paint3_linear" x1="17.2929" y1="-3.02079" x2="19.0869" y2="-3.01338" gradientUnits="userSpaceOnUse">
<stop stop-color="#FF844B"/>
<stop offset="1" stop-color="#FA5622"/>
</linearGradient>
</defs>
</svg>
