<svg width="20" height="20" viewBox="0 0 20 20" fill="none" xmlns="http://www.w3.org/2000/svg">
<path d="M10 1.71484C10 1.71484 4.375 7.89844 4.375 12.2734C4.375 15.725 6.54844 17.8984 10 17.8984C13.4516 17.8984 15.625 15.725 15.625 12.2734C15.625 7.89844 10 1.71484 10 1.71484ZM10.625 15.8672V14.9297C11.2464 14.929 11.8421 14.6818 12.2815 14.2424C12.7209 13.803 12.968 13.2073 12.9688 12.5859H13.9062C13.9053 13.4559 13.5593 14.29 12.9442 14.9051C12.329 15.5203 11.495 15.8663 10.625 15.8672Z" fill="url(#paint0_linear)"/>
<defs>
<linearGradient id="paint0_linear" x1="4.91717" y1="-3.67967" x2="14.1397" y2="-3.49045" gradientUnits="userSpaceOnUse">
<stop stop-color="#FF844B"/>
<stop offset="1" stop-color="#FA5622"/>
</linearGradient>
</defs>
</svg>
