<!--?xml version="1.0" encoding="UTF-8" standalone="no"?-->
<!--?xml version="1.0" encoding="UTF-8" standalone="no"?-->

<!-- Created with Inkscape (http://www.inkscape.org/) -->

<svg width="1052" height="744" viewBox="0 0 278.34168 196.85" version="1.1" id="svg5" inkscape:version="1.1 (c68e22c387, 2021-05-23)" sodipodi:docname="perumahan casa grande_canvas_polygon_background__.svg" xmlns:inkscape="http://www.inkscape.org/namespaces/inkscape" xmlns:sodipodi="http://sodipodi.sourceforge.net/DTD/sodipodi-0.dtd" xmlns="http://www.w3.org/2000/svg" xmlns:svg="http://www.w3.org/2000/svg">
    <sodipodi:namedview id="namedview7" pagecolor="#ffffff" bordercolor="#999999" borderopacity="1" inkscape:pageshadow="0" inkscape:pageopacity="0" inkscape:pagecheckerboard="0" inkscape:document-units="px" showgrid="false" units="px" inkscape:snap-global="true" inkscape:object-paths="false" inkscape:zoom="1.4142136" inkscape:cx="796.55577" inkscape:cy="509.47042" inkscape:window-width="1920" inkscape:window-height="1051" inkscape:window-x="-9" inkscape:window-y="-9" inkscape:window-maximized="1" inkscape:current-layer="layer3" width="373.915px"></sodipodi:namedview>
    <defs id="defs2">
      <inkscape:path-effect effect="fillet_chamfer" id="path-effect18614" is_visible="true" lpeversion="1" satellites_param="F,0,0,1,0,0,0,1 @ F,0,0,1,0,0,0,1 @ F,0,0,1,0,3.4661237,0,1 @ F,0,0,1,0,0,0,1 @ F,0,0,1,0,4.0009388,0,1 @ F,0,0,1,0,0,0,1 @ F,0,0,1,0,0,0,1 @ F,0,0,1,0,0,0,1" unit="px" method="auto" mode="F" radius="0" chamfer_steps="1" flexible="false" use_knot_distance="true" apply_no_radius="true" apply_with_radius="true" only_selected="false" hide_knots="false"></inkscape:path-effect>
    </defs>
    <g inkscape:groupmode="layer" id="layer2" inkscape:label="fill" style="display:inline">
      <polygon id="path6393" style="display:inline;fill:#b3b3b3;stroke:#008000;stroke-width:0.215968px" sodipodi:nodetypes="cccccc" points="140.5,190.1,89.8,190.1,89.8,20.3,178.4,21,178.7,95.9,140.5,190.1"></polygon>
      <polygon style="color:#000000;fill:#008000;stroke-width:0.816259;stroke-linecap:round;stroke-linejoin:round;-inkscape-stroke:none" id="path10178" sodipodi:nodetypes="ccccccccc" points="132.9,139.7,132.8,139.8,132.6,177.6,132.7,177.7,133.9,177.7,134,177.6,148.6,139.9,148.6,139.7,132.9,139.7"></polygon>
      <polygon id="path10046" style="color:#000000;fill:#008000;stroke-width:0.816259;stroke-linecap:round;stroke-linejoin:round;-inkscape-stroke:none" sodipodi:nodetypes="ccccc" points="159,36.6,159,44.5,174.8,44.5,174.8,36.6,159,36.6"></polygon>
      <polygon style="color:#000000;fill:#008000;stroke-width:0.816259;stroke-linecap:round;stroke-linejoin:round;-inkscape-stroke:none" id="path9932" sodipodi:nodetypes="ccccc" points="174.8,36.6,174,91.9,177.2,87.7,177.6,36.6,174.8,36.6"></polygon>
      <polygon id="path6499" style="display:inline;fill:#ffb380;fill-opacity:1;fill-rule:evenodd;stroke:#008000;stroke-width:0.203236;stroke-opacity:1" points="103.7,10.8,125.1,10.8,125.1,20.6,103.7,20.6,103.7,10.8"></polygon>
      <polygon id="path10316" style="color:#000000;fill:#ffb380;fill-rule:evenodd;stroke-width:0.141858;-inkscape-stroke:none" points="103.7,10.8,93.3,13.2,93.3,20.3,103.7,20.3,103.7,10.8"></polygon>
      <polygon style="color:#000000;fill:#008000;fill-rule:evenodd;stroke-width:0.816259;-inkscape-stroke:none" id="path10326" points="103.6,10.9,103.6,20.3,93.4,20.3,93.4,13.3,103.6,10.9"></polygon>
      <polygon style="color:#000000;fill:#008000;fill-rule:evenodd;stroke-width:0.816259;-inkscape-stroke:none" id="path10318" points="103.8,10.7,93.2,13.1,93.2,13.2,93.2,20.4,103.8,20.4,103.8,10.7"></polygon>
      <polygon id="path10211" style="color:#000000;fill:#ffb380;fill-rule:evenodd;stroke-width:0.176277;-inkscape-stroke:none" points="125,6,125,20.6,141.1,20.6,141.1,6,125,6"></polygon>
      <polygon style="color:#000000;fill:#008000;fill-rule:evenodd;stroke-width:0.816259;-inkscape-stroke:none" id="path10221" points="125.1,6.1,141,6.1,141,20.5,125.1,20.5,125.1,6.1"></polygon>
      <polygon style="color:#000000;fill:#008000;fill-rule:evenodd;stroke-width:0.816259;-inkscape-stroke:none" id="path10213" points="125,5.9,125,6,125,20.7,141.2,20.7,141.2,5.9,125,5.9"></polygon>
      <polygon id="path10281" style="color:#000000;fill:#ffb380;fill-rule:evenodd;stroke-width:0.203236;-inkscape-stroke:none" points="125,6,103.7,10.8,125.1,10.8,125,6"></polygon>
      <polygon style="color:#000000;fill:#008000;fill-rule:evenodd;stroke-width:0.816259;-inkscape-stroke:none" id="path10291" points="124.9,6.1,125,10.7,104.6,10.7,124.9,6.1"></polygon>
      <polygon style="color:#000000;fill:#008000;fill-rule:evenodd;stroke-width:0.816259;-inkscape-stroke:none" id="path10283" points="125.1,5.9,125,5.9,103.7,10.7,103.7,10.9,125.2,10.9,125.1,5.9"></polygon>
      <polygon id="path10246" style="color:#000000;fill:#ffb380;fill-rule:evenodd;stroke-width:0.203236;-inkscape-stroke:none" points="141.1,18.2,141.1,20.6,176.4,21,141.1,18.2"></polygon>
      <polygon style="color:#000000;fill:#008000;fill-rule:evenodd;stroke-width:0.816259;-inkscape-stroke:none" id="path10256" points="141.2,18.3,173.3,20.9,141.2,20.5,141.2,18.3"></polygon>
      <polygon style="color:#000000;fill:#008000;fill-rule:evenodd;stroke-width:0.816259;-inkscape-stroke:none" id="path10248" points="141,18.1,141,18.2,141,20.7,176.4,21.1,176.4,21.1,176.4,21.1,176.4,20.9,176.4,20.9,176.4,20.9,176.4,20.9,141,18.1"></polygon>
      <polygon id="path937" style="color:#000000;fill:#000000;stroke-width:0.841708;stroke-linecap:round;stroke-linejoin:round;-inkscape-stroke:none" sodipodi:nodetypes="ccccccccc" transform="scale(0.26458334)" points="933.5,628.5,861.1,636,933.5,643.5,941,715.9,948.5,643.5,1020.9,636,948.5,628.5,941,556.1,933.5,628.5"></polygon>
      <polygon id="polygon1047" style="display:inline;fill:#4d4d4d;stroke:#008000;stroke-width:0.215968px" sodipodi:nodetypes="ccccc" points="188.5,95.9,188.5,21,178.4,21,178.7,95.9,188.5,95.9"></polygon>
    </g>
    <g inkscape:groupmode="layer" id="layer1" inkscape:label="jalan">
      <polygon id="path6509" style="display:inline;fill:#4d4d4d;stroke:#008000;stroke-width:0.215968px" sodipodi:nodetypes="ccccc" points="150.3,190.1,188.5,95.9,178.7,95.9,140.5,190.1,150.3,190.1"></polygon>
      <text xml:space="preserve" style="font-weight:300;font-size:3.71486px;line-height:1.25;font-family:Montserrat;-inkscape-font-specification:'Montserrat Light';text-align:center;letter-spacing:0.466679px;text-anchor:middle;display:inline;fill:#ffffff;stroke-width:0.264583" x="-54.691586" y="207.14107" id="text10651" transform="rotate(-68.38127)"><tspan sodipodi:role="line" id="tspan10649" style="text-align:center;text-anchor:middle;fill:#ffffff;stroke-width:0.264583" x="-54.458248" y="207.14107">{{Jalan Raya Situbondo}}</tspan></text>
    </g>
  </svg>
  