<?xml version="1.0" encoding="UTF-8" standalone="no"?>
<!-- Creator: CorelDRAW 2019 (64-Bit) -->

<svg
   xmlns:dc="http://purl.org/dc/elements/1.1/"
   xmlns:cc="http://creativecommons.org/ns#"
   xmlns:rdf="http://www.w3.org/1999/02/22-rdf-syntax-ns#"
   xmlns:svg="http://www.w3.org/2000/svg"
   xmlns="http://www.w3.org/2000/svg"
   xmlns:sodipodi="http://sodipodi.sourceforge.net/DTD/sodipodi-0.dtd"
   xmlns:inkscape="http://www.inkscape.org/namespaces/inkscape"
   xml:space="preserve"
   width="11.6929in"
   height="8.26772in"
   version="1.1"
   style="shape-rendering:geometricPrecision; text-rendering:geometricPrecision; image-rendering:optimizeQuality; fill-rule:evenodd; clip-rule:evenodd"
   viewBox="0 0 11692.91 8267.72"
   id="svg90"
   sodipodi:docname="kavling_2.svg"
   inkscape:version="0.92.5 (2060ec1f9f, 2020-04-08)"><metadata
   id="metadata94"><rdf:RDF><cc:Work
       rdf:about=""><dc:format>image/svg+xml</dc:format><dc:type
         rdf:resource="http://purl.org/dc/dcmitype/StillImage" /></cc:Work></rdf:RDF></metadata><sodipodi:namedview
   pagecolor="#ffffff"
   bordercolor="#666666"
   borderopacity="1"
   objecttolerance="10"
   gridtolerance="10"
   guidetolerance="10"
   inkscape:pageopacity="0"
   inkscape:pageshadow="2"
   inkscape:window-width="1366"
   inkscape:window-height="711"
   id="namedview92"
   showgrid="false"
   inkscape:zoom="0.70048095"
   inkscape:cx="352.15013"
   inkscape:cy="440.00356"
   inkscape:window-x="0"
   inkscape:window-y="0"
   inkscape:window-maximized="1"
   inkscape:current-layer="svg90" />
 <defs
   id="defs4">
  <style
   type="text/css"
   id="style2">
   <![CDATA[
    .str0 {stroke:#373435;stroke-width:6.94;stroke-miterlimit:2.61313}
    .fil1 {fill:#9BFAF6}
    .fil2 {fill:#D4BEFF}
    .fil0 {fill:#FFEC73}
   ]]>
  </style>
 </defs>
 <g
   id="Layer_x0020_1"
   transform="translate(1.893837e-6)">
  <metadata
   id="CorelCorpID_0Corel-Layer" />
  <rect
   class="fil0 str0"
   x="5044.9302"
   y="3423.21"
   width="256.94"
   height="435.76001"
   id="rect7"
   style="fill:#ffec73;stroke:#373435;stroke-width:6.94000006;stroke-miterlimit:2.61313009" />
  <rect
   class="fil0 str0"
   x="5044.9302"
   y="3858.97"
   width="256.94"
   height="463.98001"
   id="rect9"
   style="fill:#ffec73;stroke:#373435;stroke-width:6.94000006;stroke-miterlimit:2.61313009" />
  <rect
   class="fil0 str0"
   x="4830.0801"
   y="3423.21"
   width="214.84"
   height="435.76001"
   id="rect11"
   style="fill:#ffec73;stroke:#373435;stroke-width:6.94000006;stroke-miterlimit:2.61313009" />
  <rect
   class="fil0 str0"
   x="4830.0801"
   y="3858.97"
   width="214.84"
   height="463.98001"
   id="rect13"
   style="fill:#ffec73;stroke:#373435;stroke-width:6.94000006;stroke-miterlimit:2.61313009" />
  <rect
   class="fil0 str0"
   x="4613.0801"
   y="3423.21"
   width="217"
   height="435.76001"
   id="rect15"
   style="fill:#ffec73;stroke:#373435;stroke-width:6.94000006;stroke-miterlimit:2.61313009" />
  <rect
   class="fil0 str0"
   x="4398.6699"
   y="3423.21"
   width="214.41"
   height="435.76001"
   id="rect17"
   style="fill:#ffec73;stroke:#373435;stroke-width:6.94000006;stroke-miterlimit:2.61313009" />
  <rect
   class="fil0 str0"
   x="4183.3901"
   y="3423.21"
   width="215.28"
   height="435.76001"
   id="rect19"
   style="fill:#ffec73;stroke:#373435;stroke-width:6.94000006;stroke-miterlimit:2.61313009" />
  <rect
   class="fil0 str0"
   x="3968.1299"
   y="3423.21"
   width="215.25999"
   height="435.76001"
   id="rect21"
   style="fill:#ffec73;stroke:#373435;stroke-width:6.94000006;stroke-miterlimit:2.61313009" />
  <polygon
   class="fil0 str0"
   points="3607.3,3842.43 3753.26,3423.21 3968.13,3423.21 3968.13,3858.97 3646.08,3855.94 "
   id="polygon23"
   style="fill:#ffec73;stroke:#373435;stroke-width:6.94000006;stroke-miterlimit:2.61313009" />
  <rect
   class="fil1 str0"
   x="4633.0698"
   y="3858.97"
   width="197.02"
   height="463.98001"
   id="rect25"
   style="fill:#9bfaf6;stroke:#373435;stroke-width:6.94000006;stroke-miterlimit:2.61313009" />
  <rect
   class="fil1 str0"
   x="4437.7598"
   y="3858.97"
   width="195.31"
   height="463.98001"
   id="rect27"
   style="fill:#9bfaf6;stroke:#373435;stroke-width:6.94000006;stroke-miterlimit:2.61313009" />
  <rect
   class="fil1 str0"
   x="4244.1802"
   y="3858.97"
   width="193.58"
   height="463.98001"
   id="rect29"
   style="fill:#9bfaf6;stroke:#373435;stroke-width:6.94000006;stroke-miterlimit:2.61313009" />
  <rect
   class="fil1 str0"
   x="4044.52"
   y="3858.97"
   width="199.64999"
   height="463.98001"
   id="rect31"
   style="fill:#9bfaf6;stroke:#373435;stroke-width:6.94000006;stroke-miterlimit:2.61313009" />
  <polygon
   class="fil2 str0"
   points="3811.45,4068.61 3853.99,4322.95 4044.52,4322.95 4044.52,3858.97 3646.08,3855.94 3676.04,3865.48 "
   id="polygon33"
   style="fill:#d4beff;stroke:#373435;stroke-width:6.94000006;stroke-miterlimit:2.61313009" />
  <rect
   class="fil2 str0"
   x="5064.96"
   y="4561.6699"
   width="236.91"
   height="429.67999"
   id="rect35"
   style="fill:#d4beff;stroke:#373435;stroke-width:6.94000006;stroke-miterlimit:2.61313009" />
  <rect
   class="fil0 str0"
   x="4849.6802"
   y="4561.6699"
   width="215.28"
   height="429.67999"
   id="rect37"
   style="fill:#ffec73;stroke:#373435;stroke-width:6.94000006;stroke-miterlimit:2.61313009" />
  <rect
   class="fil0 str0"
   x="4634.4102"
   y="4561.6699"
   width="215.28"
   height="429.67999"
   id="rect39"
   style="fill:#ffec73;stroke:#373435;stroke-width:6.94000006;stroke-miterlimit:2.61313009" />
  <rect
   class="fil0 str0"
   x="4418.2598"
   y="4561.6699"
   width="216.14999"
   height="429.67999"
   id="rect41"
   style="fill:#ffec73;stroke:#373435;stroke-width:6.94000006;stroke-miterlimit:2.61313009" />
  <rect
   class="fil0 str0"
   x="4204.7202"
   y="4561.6699"
   width="213.53999"
   height="429.67999"
   id="rect43"
   style="fill:#ffec73;stroke:#373435;stroke-width:6.94000006;stroke-miterlimit:2.61313009" />
  <polygon
   class="fil0 str0"
   points="4027.64,4993.95 4204.72,4991.35 4204.72,4561.67 3903.5,4561.67 "
   id="polygon45"
   style="fill:#ffec73;stroke:#373435;stroke-width:6.94000006;stroke-miterlimit:2.61313009" />
  <polygon
   class="fil0 str0"
   points="4508.61,5770.9 4395.82,5588.69 4767.87,5358.37 4880.67,5540.57 "
   id="polygon47"
   style="fill:#ffec73;stroke:#373435;stroke-width:6.94000006;stroke-miterlimit:2.61313009" />
  <polygon
   class="fil0 str0"
   points="4767.87,5358.37 4395.82,5588.69 4281.01,5403.23 4653.07,5172.91 "
   id="polygon49"
   style="fill:#ffec73;stroke:#373435;stroke-width:6.94000006;stroke-miterlimit:2.61313009" />
  <polygon
   class="fil0 str0"
   points="4653.07,5172.91 4281.01,5403.23 4027.64,4993.95 4540.67,4991.35 "
   id="polygon51"
   style="fill:#ffec73;stroke:#373435;stroke-width:6.94000006;stroke-miterlimit:2.61313009" />
  <polygon
   class="fil0 str0"
   points="6023.35,5256.93 5862.72,5276.05 5525.04,5276.05 5525.04,5060.77 6018.14,5060.77 "
   id="polygon53"
   style="fill:#ffec73;stroke:#373435;stroke-width:6.94000006;stroke-miterlimit:2.61313009" />
  <polygon
   class="fil0 str0"
   points="6018.14,5060.77 5525.04,5060.77 5525.04,4845.49 6025.08,4845.49 "
   id="polygon55"
   style="fill:#ffec73;stroke:#373435;stroke-width:6.94000006;stroke-miterlimit:2.61313009" />
  <polygon
   class="fil0 str0"
   points="5525.04,4630.21 5525.04,4845.49 6025.08,4845.49 6025.08,4630.21 "
   id="polygon57"
   style="fill:#ffec73;stroke:#373435;stroke-width:6.94000006;stroke-miterlimit:2.61313009" />
  <polygon
   class="fil0 str0"
   points="5525.04,4414.93 5525.04,4630.21 6025.08,4630.21 6025.08,4414.93 "
   id="polygon59"
   style="fill:#ffec73;stroke:#373435;stroke-width:6.94000006;stroke-miterlimit:2.61313009" />
  <polygon
   class="fil0 str0"
   points="5525.04,4199.65 5525.04,4414.93 6025.08,4414.93 6019.01,4199.65 "
   id="polygon61"
   style="fill:#ffec73;stroke:#373435;stroke-width:6.94000006;stroke-miterlimit:2.61313009" />
  <polygon
   class="fil0 str0"
   points="5525.04,3984.37 5525.04,4199.65 6019.01,4199.65 6026.85,3984.37 "
   id="polygon63"
   style="fill:#ffec73;stroke:#373435;stroke-width:6.94000006;stroke-miterlimit:2.61313009" />
  <polygon
   class="fil0 str0"
   points="5525.04,3769.09 5525.04,3984.37 6026.85,3984.37 6033.79,3769.09 "
   id="polygon65"
   style="fill:#ffec73;stroke:#373435;stroke-width:6.94000006;stroke-miterlimit:2.61313009" />
  <polygon
   class="fil2 str0"
   points="5525.04,3572.91 5525.04,3769.09 6033.79,3769.09 6040.75,3572.91 "
   id="polygon67"
   style="fill:#d4beff;stroke:#373435;stroke-width:6.94000006;stroke-miterlimit:2.61313009" />
  <polygon
   class="fil2 str0"
   points="5525.04,3338.54 5525.04,3572.91 6040.75,3572.91 6046.82,3338.54 "
   id="polygon69"
   style="fill:#d4beff;stroke:#373435;stroke-width:6.94000006;stroke-miterlimit:2.61313009" />
  <polygon
   class="fil2 str0"
   points="2828.98,3635.44 3098.94,3720.51 3379.44,3791.12 3450.74,3586.34 2933.73,3406.33 "
   id="polygon71"
   style="fill:#d4beff;stroke:#373435;stroke-width:6.94000006;stroke-miterlimit:2.61313009" />
  <polygon
   class="fil0 str0"
   points="3516.73,3383.75 3450.74,3586.34 2933.73,3406.33 3024.93,3212.51 "
   id="polygon73"
   style="fill:#ffec73;stroke:#373435;stroke-width:6.94000006;stroke-miterlimit:2.61313009" />
  <polygon
   class="fil0 str0"
   points="3593.24,3177.06 3520.78,3385.16 3024.93,3212.51 3118.76,3011.85 "
   id="polygon75"
   style="fill:#ffec73;stroke:#373435;stroke-width:6.94000006;stroke-miterlimit:2.61313009" />
  <polygon
   class="fil0 str0"
   points="3539.15,2038.52 3472.25,2026.52 3420.9,2183.66 3933.06,2361.98 3990.91,2195.81 "
   id="polygon77"
   style="fill:#ffec73;stroke:#373435;stroke-width:6.94000006;stroke-miterlimit:2.61313009" />
  <polygon
   class="fil0 str0"
   points="3873.93,2531.8 3933.06,2361.98 3420.9,2183.66 3361.78,2353.47 "
   id="polygon79"
   style="fill:#ffec73;stroke:#373435;stroke-width:6.94000006;stroke-miterlimit:2.61313009" />
  <polygon
   class="fil0 str0"
   points="3816.79,2695.92 3874.78,2529.35 3361.78,2353.47 3305.16,2520.46 "
   id="polygon81"
   style="fill:#ffec73;stroke:#373435;stroke-width:6.94000006;stroke-miterlimit:2.61313009" />
  <polygon
   class="fil0 str0"
   points="3758.66,2862.85 3816.79,2695.92 3305.16,2520.46 3247.87,2685 "
   id="polygon83"
   style="fill:#ffec73;stroke:#373435;stroke-width:6.94000006;stroke-miterlimit:2.61313009" />
  <polygon
   class="fil0 str0"
   points="3700.89,3028.78 3758.66,2862.85 3247.87,2685 3190.1,2850.93 "
   id="polygon85"
   style="fill:#ffec73;stroke:#373435;stroke-width:6.94000006;stroke-miterlimit:2.61313009" />
  <polygon
   class="fil0 str0"
   points="3118.76,3011.85 3646.09,3194.31 3700.89,3028.78 3190.1,2850.93 3180.38,2881.81 "
   id="polygon87"
   style="fill:#ffec73;stroke:#373435;stroke-width:6.94000006;stroke-miterlimit:2.61313009" />
 </g>
</svg>