<!--?xml version="1.0" encoding="UTF-8" standalone="no"?-->
<svg xmlns:dc="http://purl.org/dc/elements/1.1/" xmlns:cc="http://creativecommons.org/ns#" xmlns:rdf="http://www.w3.org/1999/02/22-rdf-syntax-ns#" xmlns:svg="http://www.w3.org/2000/svg" xmlns="http://www.w3.org/2000/svg" xmlns:sodipodi="http://sodipodi.sourceforge.net/DTD/sodipodi-0.dtd" xmlns:inkscape="http://www.inkscape.org/namespaces/inkscape" inkscape:export-ydpi="96" inkscape:export-xdpi="96" inkscape:export-filename="/home/nineone/Downloads/Site plan Wijaya Kusuma- tahap 2.png" sodipodi:docname="Site plan Wijaya Kusuma- tahap 1_Vector.svg" inkscape:version="1.0.2 (1.0.2+r75+1)" id="svg8" version="1.1" viewBox="0 0 184.90009 196.85" height="744" width="698.83502">
  <defs id="defs2">
    <inkscape:path-effect effect="fillet_chamfer" id="path-effect995" is_visible="true" lpeversion="1" satellites_param="F,0,0,1,0,0,0,1 @ F,0,0,1,0,1.7325138,0,1 @ F,0,0,1,0,2.8877241,0,1 @ F,0,0,1,0,0,0,1" unit="px" method="auto" mode="F" radius="0" chamfer_steps="1" flexible="false" use_knot_distance="true" apply_no_radius="true" apply_with_radius="true" only_selected="false" hide_knots="false"></inkscape:path-effect>
    <inkscape:path-effect effect="fillet_chamfer" id="path-effect1178" is_visible="true" lpeversion="1" satellites_param="F,0,0,1,0,0,0,1 @ F,0,0,1,0,0,0,1 @ F,0,0,1,0,0,0,1 @ F,0,0,1,0,0,0,1" unit="px" method="auto" mode="F" radius="0" chamfer_steps="1" flexible="false" use_knot_distance="true" apply_no_radius="true" apply_with_radius="true" only_selected="false" hide_knots="false"></inkscape:path-effect>
    <inkscape:path-effect effect="fillet_chamfer" id="path-effect1176" is_visible="true" lpeversion="1" satellites_param="F,0,0,1,0,0,0,1 @ F,0,0,1,0,0,0,1 @ F,0,0,1,0,0,0,1 @ F,0,0,1,0,0,0,1" unit="px" method="auto" mode="F" radius="0" chamfer_steps="1" flexible="false" use_knot_distance="true" apply_no_radius="true" apply_with_radius="true" only_selected="false" hide_knots="false"></inkscape:path-effect>
  </defs>
  <sodipodi:namedview id="base" pagecolor="#ffffff" bordercolor="#666666" borderopacity="1.0" inkscape:pageopacity="0.0" inkscape:pageshadow="2" inkscape:zoom="0.35355339" inkscape:cx="117.19414" inkscape:cy="390.66833" inkscape:document-units="px" inkscape:current-layer="layer4" showgrid="false" inkscape:window-width="1360" inkscape:window-height="744" inkscape:window-x="1366" inkscape:window-y="0" inkscape:window-maximized="1" inkscape:document-rotation="0" units="px" inkscape:snap-bbox="false" inkscape:snap-intersection-paths="false" inkscape:snap-smooth-nodes="true"></sodipodi:namedview>
  <metadata id="metadata5">
    <rdf:rdf>
      <cc:work rdf:about="">
        <dc:format>image/svg+xml</dc:format>
        <dc:type rdf:resource="http://purl.org/dc/dcmitype/StillImage"></dc:type>
        <dc:title></dc:title>
      </cc:work>
    </rdf:rdf>
  </metadata>
  <g inkscape:groupmode="layer" id="layer4" inkscape:label="fill" style="display:inline">
    <polygon id="path1168" style="fill:#ffb380;fill-opacity:1;stroke:#008000;stroke-width:0.264582;stroke-linecap:round;stroke-opacity:1" points="118.4,5.8,114.3,28.1,124.4,29.9,128.6,7.8,118.6,5.9,118.4,5.8"></polygon>
    <polygon id="rect1171" style="fill:#ffb380;fill-opacity:1;stroke:#008000;stroke-width:0.264582;stroke-linecap:round;stroke-opacity:1" points="99.2,37.7,107.7,40,103.2,56.8,94.7,54.5,99.2,37.7"></polygon>
    <polygon id="rect1174" style="fill:#ffb380;fill-opacity:1;stroke:#008000;stroke-width:0.264582;stroke-linecap:round;stroke-opacity:1" points="86.2,52.3,94.7,54.5,90.2,71.4,81.7,69.1,86.2,52.3"></polygon>
    <polygon id="rect1176" style="fill:#ffb380;fill-opacity:1;stroke:#008000;stroke-width:0.264582;stroke-linecap:round;stroke-opacity:1" points="90.7,35.4,99.2,37.7,94.7,54.5,86.2,52.3,90.7,35.4"></polygon>
    <polygon id="rect1178" style="fill:#ffb380;fill-opacity:1;stroke:#008000;stroke-width:0.264582;stroke-linecap:round;stroke-opacity:1" points="77.8,50,86.2,52.3,81.7,69.1,73.2,66.8,77.8,50"></polygon>
    <polygon id="rect1180" style="fill:#ffb380;fill-opacity:1;stroke:#008000;stroke-width:0.264582;stroke-linecap:round;stroke-opacity:1" points="82.3,33.2,90.7,35.4,86.2,52.3,77.8,50,82.3,33.2"></polygon>
    <polygon id="rect1182" style="fill:#ffb380;fill-opacity:1;stroke:#008000;stroke-width:0.264582;stroke-linecap:round;stroke-opacity:1" points="69.3,47.7,77.8,50,73.2,66.8,64.8,64.6,69.3,47.7"></polygon>
    <polygon id="rect1184" style="fill:#ffb380;fill-opacity:1;stroke:#008000;stroke-width:0.264582;stroke-linecap:round;stroke-opacity:1" points="73.8,30.9,82.3,33.2,77.8,50,69.3,47.7,73.8,30.9"></polygon>
    <polygon id="rect1186" style="fill:#ffb380;fill-opacity:1;stroke:#008000;stroke-width:0.264582;stroke-linecap:round;stroke-opacity:1" points="60.8,45.5,69.3,47.7,64.8,64.6,56.3,62.3,60.8,45.5"></polygon>
    <polygon id="rect1188" style="fill:#ffb380;fill-opacity:1;stroke:#008000;stroke-width:0.264582;stroke-linecap:round;stroke-opacity:1" points="48.3,24.1,56.8,26.4,52.3,43.2,43.8,40.9,48.3,24.1"></polygon>
    <polygon id="rect1190" style="fill:#ffb380;fill-opacity:1;stroke:#008000;stroke-width:0.264582;stroke-linecap:round;stroke-opacity:1" points="43.8,40.9,52.3,43.2,47.8,60,39.3,57.7,43.8,40.9"></polygon>
    <polygon id="rect1192" style="fill:#ffb380;fill-opacity:1;stroke:#008000;stroke-width:0.264582;stroke-linecap:round;stroke-opacity:1" points="39.9,21.8,48.3,24.1,43.8,40.9,35.3,38.6,39.9,21.8"></polygon>
    <polygon id="rect1194" style="fill:#ffb380;fill-opacity:1;stroke:#008000;stroke-width:0.264582;stroke-linecap:round;stroke-opacity:1" points="35.3,38.6,43.8,40.9,39.3,57.7,30.8,55.5,35.3,38.6"></polygon>
    <polygon id="rect1196" style="fill:#ffb380;fill-opacity:1;stroke:#008000;stroke-width:0.264582;stroke-linecap:round;stroke-opacity:1" points="31.4,19.5,39.9,21.8,35.3,38.6,26.9,36.4,31.4,19.5"></polygon>
    <polygon id="rect1198" style="fill:#ffb380;fill-opacity:1;stroke:#008000;stroke-width:0.264582;stroke-linecap:round;stroke-opacity:1" points="26.9,36.4,35.3,38.6,30.8,55.5,22.3,53.2,26.9,36.4"></polygon>
    <polygon id="rect1200" style="fill:#ffb380;fill-opacity:1;stroke:#008000;stroke-width:0.264582;stroke-linecap:round;stroke-opacity:1" points="22.9,17.3,31.4,19.5,26.9,36.4,18.4,34.1,22.9,17.3"></polygon>
    <polygon id="rect1202" style="fill:#ffb380;fill-opacity:1;stroke:#008000;stroke-width:0.264582;stroke-linecap:round;stroke-opacity:1" points="18.4,34.1,26.9,36.4,22.3,53.2,13.9,50.9,18.4,34.1"></polygon>
    <polygon id="rect1204" style="fill:#ffb380;fill-opacity:1;stroke:#008000;stroke-width:0.264582;stroke-linecap:round;stroke-opacity:1" points="56.8,26.4,65.3,28.6,60.8,45.5,52.3,43.2,56.8,26.4"></polygon>
    <polygon id="rect1206" style="fill:#ffb380;fill-opacity:1;stroke:#008000;stroke-width:0.264582;stroke-linecap:round;stroke-opacity:1" points="65.3,28.6,73.8,30.9,69.3,47.7,60.8,45.5,65.3,28.6"></polygon>
    <polygon id="rect1208" style="fill:#ffb380;fill-opacity:1;stroke:#008000;stroke-width:0.264582;stroke-linecap:round;stroke-opacity:1" points="52.3,43.2,60.8,45.5,56.3,62.3,47.8,60,52.3,43.2"></polygon>
    <polygon id="rect1210" style="fill:#ffb380;fill-opacity:1;stroke:#008000;stroke-width:0.264582;stroke-linecap:round;stroke-opacity:1" points="94.7,54.5,103.2,56.8,98.7,73.6,90.2,71.4,94.7,54.5"></polygon>
    <polygon id="rect1212" style="fill:#ffb380;fill-opacity:1;stroke:#008000;stroke-width:0.264582;stroke-linecap:round;stroke-opacity:1" points="87.8,80.4,96.3,82.7,91.8,99.5,83.3,97.2,87.8,80.4"></polygon>
    <polygon id="rect1214" style="fill:#ffb380;fill-opacity:1;stroke:#008000;stroke-width:0.264582;stroke-linecap:round;stroke-opacity:1" points="74.8,95,83.3,97.2,78.8,114.1,70.3,111.8,74.8,95"></polygon>
    <polygon id="rect1216" style="fill:#ffb380;fill-opacity:1;stroke:#008000;stroke-width:0.264582;stroke-linecap:round;stroke-opacity:1" points="79.3,78.1,87.8,80.4,83.3,97.2,74.8,95,79.3,78.1"></polygon>
    <polygon id="rect1218" style="fill:#ffb380;fill-opacity:1;stroke:#008000;stroke-width:0.264582;stroke-linecap:round;stroke-opacity:1" points="66.3,92.7,74.8,95,70.3,111.8,61.8,109.5,66.3,92.7"></polygon>
    <polygon id="rect1220" style="fill:#ffb380;fill-opacity:1;stroke:#008000;stroke-width:0.264582;stroke-linecap:round;stroke-opacity:1" points="70.8,75.9,79.3,78.1,74.8,95,66.3,92.7,70.8,75.9"></polygon>
    <polygon id="rect1222" style="fill:#ffb380;fill-opacity:1;stroke:#008000;stroke-width:0.264582;stroke-linecap:round;stroke-opacity:1" points="57.8,90.4,66.3,92.7,61.8,109.5,53.3,107.2,57.8,90.4"></polygon>
    <polygon id="rect1224" style="fill:#ffb380;fill-opacity:1;stroke:#008000;stroke-width:0.264582;stroke-linecap:round;stroke-opacity:1" points="62.4,73.6,70.8,75.9,66.3,92.7,57.8,90.4,62.4,73.6"></polygon>
    <polygon id="rect1226" style="fill:#ffb380;fill-opacity:1;stroke:#008000;stroke-width:0.264582;stroke-linecap:round;stroke-opacity:1" points="49.4,88.1,57.8,90.4,53.3,107.2,44.9,105,49.4,88.1"></polygon>
    <polygon id="rect1228" style="fill:#ffb380;fill-opacity:1;stroke:#008000;stroke-width:0.264582;stroke-linecap:round;stroke-opacity:1" points="36.9,66.8,45.4,69,40.9,85.9,32.4,83.6,36.9,66.8"></polygon>
    <polygon id="rect1230" style="fill:#ffb380;fill-opacity:1;stroke:#008000;stroke-width:0.264582;stroke-linecap:round;stroke-opacity:1" points="32.4,83.6,40.9,85.9,36.4,102.7,27.9,100.4,32.4,83.6"></polygon>
    <polygon id="rect1232" style="fill:#ffb380;fill-opacity:1;stroke:#008000;stroke-width:0.264582;stroke-linecap:round;stroke-opacity:1" points="28.4,64.5,36.9,66.8,32.4,83.6,23.9,81.3,28.4,64.5"></polygon>
    <polygon id="rect1234" style="fill:#ffb380;fill-opacity:1;stroke:#008000;stroke-width:0.264582;stroke-linecap:round;stroke-opacity:1" points="23.9,81.3,32.4,83.6,27.9,100.4,19.4,98.2,23.9,81.3"></polygon>
    <polygon id="rect1236" style="fill:#ffb380;fill-opacity:1;stroke:#008000;stroke-width:0.264582;stroke-linecap:round;stroke-opacity:1" points="19.9,62.2,28.4,64.5,23.9,81.3,15.4,79.1,19.9,62.2"></polygon>
    <polygon id="rect1239" style="fill:#ffb380;fill-opacity:1;stroke:#008000;stroke-width:0.264582;stroke-linecap:round;stroke-opacity:1" points="15.4,79.1,23.9,81.3,19.4,98.2,10.9,95.9,15.4,79.1"></polygon>
    <polygon id="rect1241" style="fill:#ffb380;fill-opacity:1;stroke:#008000;stroke-width:0.264582;stroke-linecap:round;stroke-opacity:1" points="11.5,60,19.9,62.2,15.4,79.1,7,76.8,11.5,60"></polygon>
    <polygon id="rect1243" style="fill:#ffb380;fill-opacity:1;stroke:#008000;stroke-width:0.264582;stroke-linecap:round;stroke-opacity:1" points="7,76.8,15.4,79.1,10.9,95.9,2.4,93.6,7,76.8"></polygon>
    <polygon id="rect1245" style="fill:#ffb380;fill-opacity:1;stroke:#008000;stroke-width:0.264582;stroke-linecap:round;stroke-opacity:1" points="45.4,69,53.9,71.3,49.4,88.1,40.9,85.9,45.4,69"></polygon>
    <polygon id="rect1247" style="fill:#ffb380;fill-opacity:1;stroke:#008000;stroke-width:0.264582;stroke-linecap:round;stroke-opacity:1" points="53.9,71.3,62.4,73.6,57.8,90.4,49.4,88.1,53.9,71.3"></polygon>
    <polygon id="rect1249" style="fill:#ffb380;fill-opacity:1;stroke:#008000;stroke-width:0.264582;stroke-linecap:round;stroke-opacity:1" points="40.9,85.9,49.4,88.1,44.9,105,36.4,102.7,40.9,85.9"></polygon>
    <polygon id="rect1251" style="fill:#ffb380;fill-opacity:1;stroke:#008000;stroke-width:0.264582;stroke-linecap:round;stroke-opacity:1" points="83.3,97.2,91.8,99.5,87.3,116.3,78.8,114.1,83.3,97.2"></polygon>
    <polygon id="path1253" style="fill:#ffb380;fill-opacity:1;stroke:#008000;stroke-width:0.264582;stroke-linecap:round;stroke-opacity:1" points="96.3,82.7,103.7,84.8,101.3,102.1,91.8,99.5,96.3,82.7"></polygon>
    <polygon id="path1255" style="fill:#ffb380;fill-opacity:1;stroke:#008000;stroke-width:0.264582;stroke-linecap:round;stroke-opacity:1" points="91.8,99.5,101.3,102.1,98.6,119.4,87.3,116.3,91.8,99.5"></polygon>
    <polygon id="path1257" style="fill:#008000;fill-opacity:1;stroke:#008000;stroke-width:0.264582;stroke-linecap:round;stroke-opacity:1" points="111,40.5,120.9,41.6,122.1,41.9,123.7,43.5,124,44.7,127.7,74.1,127.5,75.7,126.7,77,125.3,77.8,123.7,77.9,107.7,75.4,111,40.5"></polygon>
    <polygon id="path1259" style="fill:#ffb380;fill-opacity:1;stroke:#008000;stroke-width:0.264582;stroke-linecap:round;stroke-opacity:1" points="88.7,0.2,84.4,16.5,95.1,20.5,98.5,2,88.7,0.2"></polygon>
    <polygon id="path1261" style="fill:#ffb380;fill-opacity:1;stroke:#008000;stroke-width:0.264582;stroke-linecap:round;stroke-opacity:1" points="98.5,2,95.1,20.5,94.7,22.3,104.4,25.4,104.5,25.5,108.6,4,98.6,2,98.5,2"></polygon>
    <polygon id="path1263" style="fill:#ffb380;fill-opacity:1;stroke:#008000;stroke-width:0.264582;stroke-linecap:round;stroke-opacity:1" points="108.6,4,104.5,25.5,110.1,27.3,114.2,28.1,114.3,28.1,118.4,5.8,108.6,4,108.6,4"></polygon>
    <polygon id="path1265" style="fill:#ffb380;fill-opacity:1;stroke:#008000;stroke-width:0.264582;stroke-linecap:round;stroke-opacity:1" points="4.7,104.2,0.2,121.3,8.3,123.8,13,106.3,12.9,106.3,4.7,104.2"></polygon>
    <polygon id="path1267" style="fill:#ffb380;fill-opacity:1;stroke:#008000;stroke-width:0.264582;stroke-linecap:round;stroke-opacity:1" points="13,106.3,8.3,123.8,8.4,123.9,16.9,126.3,21.7,108.6,21.5,108.5,13,106.3"></polygon>
    <polygon id="path1269" style="fill:#ffb380;fill-opacity:1;stroke:#008000;stroke-width:0.264582;stroke-linecap:round;stroke-opacity:1" points="21.7,108.6,16.9,126.3,17,126.3,25.4,128,30.1,110.6,29.9,110.6,21.7,108.6"></polygon>
    <polygon id="path1271" style="fill:#ffb380;fill-opacity:1;stroke:#008000;stroke-width:0.264582;stroke-linecap:round;stroke-opacity:1" points="30.1,110.6,25.4,128,25.6,128,34,129.5,38.5,112.8,38.3,112.8,30.1,110.6"></polygon>
    <polygon id="path1273" style="fill:#ffb380;fill-opacity:1;stroke:#008000;stroke-width:0.264582;stroke-linecap:round;stroke-opacity:1" points="38.5,112.8,34,129.5,34.1,129.5,42.4,131.7,46.8,115,38.5,112.8"></polygon>
    <polygon id="path1275" style="fill:#ffb380;fill-opacity:1;stroke:#008000;stroke-width:0.264582;stroke-linecap:round;stroke-opacity:1" points="46.8,115,42.4,131.7,42.6,131.7,50.8,133.8,55.2,117.3,46.9,115,46.8,115"></polygon>
    <polygon id="path1277" style="fill:#ffb380;fill-opacity:1;stroke:#008000;stroke-width:0.264582;stroke-linecap:round;stroke-opacity:1" points="55.2,117.3,50.8,133.8,51,133.9,59,136.5,63.6,119.4,55.2,117.3,55.2,117.3"></polygon>
    <polygon id="path1279" style="fill:#ffb380;fill-opacity:1;stroke:#008000;stroke-width:0.264582;stroke-linecap:round;stroke-opacity:1" points="63.6,119.4,59,136.5,59.3,136.6,67.2,139.4,71.9,121.7,63.7,119.4,63.6,119.4"></polygon>
    <polygon id="path1281" style="fill:#ffb380;fill-opacity:1;stroke:#008000;stroke-width:0.264582;stroke-linecap:round;stroke-opacity:1" points="71.9,121.7,67.2,139.4,67.5,139.5,75.6,141.4,80.3,123.8,72.1,121.7,71.9,121.7"></polygon>
    <polygon id="path1283" style="fill:#ffb380;fill-opacity:1;stroke:#008000;stroke-width:0.264582;stroke-linecap:round;stroke-opacity:1" points="80.3,123.8,75.6,141.4,75.9,141.4,84.1,143.1,88.7,126,80.4,123.9,80.3,123.8"></polygon>
    <polygon id="path1285" style="fill:#ffb380;fill-opacity:1;stroke:#008000;stroke-width:0.264582;stroke-linecap:round;stroke-opacity:1" points="88.7,126,84.1,143.1,84.5,143.2,94.7,145.2,97.3,128.2,88.8,126,88.7,126"></polygon>
    <polygon id="path1287" style="fill:#ffb380;fill-opacity:1;stroke:#008000;stroke-width:0.264582;stroke-linecap:round;stroke-opacity:1" points="174.9,50.9,184.7,52.5,180.9,69.6,172.3,68.2,174.9,50.9"></polygon>
    <polygon id="path1289" style="fill:#ffb380;fill-opacity:1;stroke:#008000;stroke-width:0.264582;stroke-linecap:round;stroke-opacity:1" points="166.2,49.5,174.9,50.9,172.3,68.2,170.7,67.9,163.6,66.8,164.9,58.2,166.2,49.5"></polygon>
    <polygon id="path1291" style="fill:#ffb380;fill-opacity:1;stroke:#008000;stroke-width:0.264582;stroke-linecap:round;stroke-opacity:1" points="170.7,67.9,180.9,69.6,177.1,86.6,168.5,85.3,170.7,67.9"></polygon>
    <polygon id="path1293" style="fill:#ffb380;fill-opacity:1;stroke:#008000;stroke-width:0.264582;stroke-linecap:round;stroke-opacity:1" points="162.1,66.6,170.7,67.9,168.5,85.3,159.9,84,161,75.2,162.1,66.6"></polygon>
    <polygon id="path1295" style="fill:#ffb380;fill-opacity:1;stroke:#008000;stroke-width:0.264582;stroke-linecap:round;stroke-opacity:1" points="135.2,44.6,166.2,49.5,164.9,58.2,136,53.7,135.2,44.6"></polygon>
    <polygon id="path1297" style="fill:#ffb380;fill-opacity:1;stroke:#008000;stroke-width:0.264582;stroke-linecap:round;stroke-opacity:1" points="136,53.7,164.9,58.2,163.6,66.8,136.8,62.5,136,53.7"></polygon>
    <polygon id="path1299" style="fill:#ffb380;fill-opacity:1;stroke:#008000;stroke-width:0.264582;stroke-linecap:round;stroke-opacity:1" points="136.8,62.5,162.1,66.6,161,75.2,137.7,71.7,136.8,62.5"></polygon>
    <polygon id="path1301" style="fill:#ffb380;fill-opacity:1;stroke:#008000;stroke-width:0.264582;stroke-linecap:round;stroke-opacity:1" points="137.7,71.7,161,75.2,159.9,84,138.5,80.7,137.7,71.7"></polygon>
    <polygon id="path1303" style="fill:#ffb380;fill-opacity:1;stroke:#008000;stroke-width:0.264582;stroke-linecap:round;stroke-opacity:1" points="164.1,93.4,174.7,95,170.6,112,162.2,110.7,164.1,93.4"></polygon>
    <polygon id="path1305" style="fill:#ffb380;fill-opacity:1;stroke:#008000;stroke-width:0.264582;stroke-linecap:round;stroke-opacity:1" points="159.8,110.5,170.6,112,165.2,128.8,157,127.6,158.4,119,159.8,110.5"></polygon>
    <polygon id="path1307" style="fill:#ffb380;fill-opacity:1;stroke:#008000;stroke-width:0.264582;stroke-linecap:round;stroke-opacity:1" points="155.8,92.1,164.1,93.4,162.2,110.7,153.4,109.5,154.6,100.8,155.8,92.1"></polygon>
    <polygon id="path1309" style="fill:#ffb380;fill-opacity:1;stroke:#008000;stroke-width:0.264582;stroke-linecap:round;stroke-opacity:1" points="136.9,89.2,155.8,92.1,154.6,100.8,135.6,97.8,136.9,89.2"></polygon>
    <polygon id="path1311" style="fill:#ffb380;fill-opacity:1;stroke:#008000;stroke-width:0.264582;stroke-linecap:round;stroke-opacity:1" points="135.7,97.8,154.6,100.8,153.4,109.5,134.4,106.4,135.7,97.8"></polygon>
    <polygon id="path1313" style="fill:#ffb380;fill-opacity:1;stroke:#008000;stroke-width:0.264582;stroke-linecap:round;stroke-opacity:1" points="134.3,106.4,159.8,110.5,158.4,119,132.8,115,134.3,106.4"></polygon>
    <polygon id="path1315" style="fill:#ffb380;fill-opacity:1;stroke:#008000;stroke-width:0.264582;stroke-linecap:round;stroke-opacity:1" points="132.8,115,158.4,119,157,127.6,131.6,123.8,132.8,115"></polygon>
    <polygon id="path1317" style="fill:#ffb380;fill-opacity:1;stroke:#008000;stroke-width:0.264582;stroke-linecap:round;stroke-opacity:1" points="152.8,135.7,163,137.3,159.5,154.4,151,153,151.9,144.5,152.8,135.7"></polygon>
    <polygon id="path1319" style="fill:#ffb380;fill-opacity:1;stroke:#008000;stroke-width:0.264582;stroke-linecap:round;stroke-opacity:1" points="149.4,152.8,159.5,154.4,155,171.4,146.3,169.9,147.9,161.4,149.4,152.8"></polygon>
    <polygon id="path1321" style="fill:#ffb380;fill-opacity:1;stroke:#008000;stroke-width:0.264582;stroke-linecap:round;stroke-opacity:1" points="130,132.3,152.8,135.7,151.9,144.5,128.7,140.8,130,132.3"></polygon>
    <polygon id="path1323" style="fill:#ffb380;fill-opacity:1;stroke:#008000;stroke-width:0.264582;stroke-linecap:round;stroke-opacity:1" points="128.7,140.8,151.9,144.5,151,153,127.4,149.4,128.7,140.8"></polygon>
    <polygon id="path1325" style="fill:#ffb380;fill-opacity:1;stroke:#008000;stroke-width:0.264582;stroke-linecap:round;stroke-opacity:1" points="127.4,149.4,149.4,152.8,147.9,161.4,126,158,127.4,149.4"></polygon>
    <polygon id="path1327" style="fill:#ffb380;fill-opacity:1;stroke:#008000;stroke-width:0.264582;stroke-linecap:round;stroke-opacity:1" points="126,158,147.9,161.4,146.3,169.9,124.7,166.5,126,158"></polygon>
    <polygon id="path1329" style="fill:#ffb380;fill-opacity:1;stroke:#008000;stroke-width:0.264582;stroke-linecap:round;stroke-opacity:1" points="144,178.2,152.7,179.5,149.1,196.7,141.2,195.5,142.6,186.8,144,178.2"></polygon>
    <polygon id="path1331" style="fill:#ffb380;fill-opacity:1;stroke:#008000;stroke-width:0.264582;stroke-linecap:round;stroke-opacity:1" points="123.2,175.3,144,178.2,142.6,186.8,121.9,184,123.2,175.3"></polygon>
    <polygon id="path1333" style="fill:#ffb380;fill-opacity:1;stroke:#008000;stroke-width:0.264582;stroke-linecap:round;stroke-opacity:1" points="121.9,184,142.6,186.8,141.2,195.5,120.5,192.7,121.9,184"></polygon>
    <polygon id="path1335" style="fill:#ffb380;fill-opacity:1;stroke:#008000;stroke-width:0.264582;stroke-linecap:round;stroke-opacity:1" points="92.8,171.2,112.7,174.3,111.4,182.9,91,179.8,92.8,171.2"></polygon>
    <polygon id="path1337" style="fill:#ffb380;fill-opacity:1;stroke:#008000;stroke-width:0.264582;stroke-linecap:round;stroke-opacity:1" points="91,179.8,111.4,182.9,110.1,191.6,89.1,188.5,91,179.8"></polygon>
    <polygon id="path1339" style="fill:#ffb380;fill-opacity:1;stroke:#008000;stroke-width:0.264582;stroke-linecap:round;stroke-opacity:1" points="99.8,128.4,119.5,131.2,118.1,139.8,98.4,136.9,99.8,128.4"></polygon>
    <polygon id="path1341" style="fill:#ffb380;fill-opacity:1;stroke:#008000;stroke-width:0.264582;stroke-linecap:round;stroke-opacity:1" points="98.4,136.9,118.1,139.8,116.8,148.4,96.9,145.4,98.4,136.9"></polygon>
    <polygon id="path1343" style="fill:#ffb380;fill-opacity:1;stroke:#008000;stroke-width:0.264582;stroke-linecap:round;stroke-opacity:1" points="96.9,145.4,97.2,147.4,97.1,151.7,96.4,154.1,115.4,157,116.8,148.4,96.9,145.4"></polygon>
    <polygon id="path1345" style="fill:#ffb380;fill-opacity:1;stroke:#008000;stroke-width:0.264582;stroke-linecap:round;stroke-opacity:1" points="96.4,154.1,115.4,157,114.1,165.6,94.7,162.7,96.4,154.1"></polygon>
    <polygon id="path1347" style="fill:#ffb380;fill-opacity:1;stroke:#008000;stroke-width:0.264582;stroke-linecap:round;stroke-opacity:1" points="106.4,84.4,126.5,87.6,125.2,96.3,105.3,93.2,106.4,84.4"></polygon>
    <polygon id="path1349" style="fill:#ffb380;fill-opacity:1;stroke:#008000;stroke-width:0.264582;stroke-linecap:round;stroke-opacity:1" points="105.3,93.2,125.2,96.3,123.8,104.8,104,101.7,105.3,93.2"></polygon>
    <polygon id="path1351" style="fill:#ffb380;fill-opacity:1;stroke:#008000;stroke-width:0.264582;stroke-linecap:round;stroke-opacity:1" points="104,101.7,123.8,104.8,122.4,113.4,102.5,110.3,104,101.7"></polygon>
    <polygon id="path1353" style="fill:#ffb380;fill-opacity:1;stroke:#008000;stroke-width:0.264582;stroke-linecap:round;stroke-opacity:1" points="102.5,110.3,122.4,113.4,120.9,122,101,119,102.5,110.3"></polygon>
  </g>
</svg>
