<!--?xml version="1.0" encoding="UTF-8" standalone="no"?-->
<svg xmlns:dc="http://purl.org/dc/elements/1.1/" xmlns:cc="http://creativecommons.org/ns#" xmlns:rdf="http://www.w3.org/1999/02/22-rdf-syntax-ns#" xmlns:svg="http://www.w3.org/2000/svg" xmlns="http://www.w3.org/2000/svg" xmlns:sodipodi="http://sodipodi.sourceforge.net/DTD/sodipodi-0.dtd" xmlns:inkscape="http://www.inkscape.org/namespaces/inkscape" width="682.23877" height="947.19879" viewBox="0 0 180.509 250.61301" version="1.1" id="svg8" inkscape:version="1.0.2 (1.0.2+r75+1)" sodipodi:docname="Site plan Wijaya Kusuma- tahap 2_Vector.svg" inkscape:export-filename="/home/nineone/Downloads/Site plan Wijaya Kusuma- tahap 2.png" inkscape:export-xdpi="96" inkscape:export-ydpi="96">
  <defs id="defs2"></defs>
  <sodipodi:namedview id="base" pagecolor="#ffffff" bordercolor="#666666" borderopacity="1.0" inkscape:pageopacity="0.0" inkscape:pageshadow="2" inkscape:zoom="0.5" inkscape:cx="213.01447" inkscape:cy="422.17724" inkscape:document-units="px" inkscape:current-layer="layer4" showgrid="false" inkscape:window-width="1360" inkscape:window-height="744" inkscape:window-x="1366" inkscape:window-y="0" inkscape:window-maximized="1" inkscape:document-rotation="0" units="px" inkscape:snap-bbox="false" inkscape:snap-intersection-paths="false" inkscape:snap-smooth-nodes="true"></sodipodi:namedview>
  <metadata id="metadata5">
    <rdf:rdf>
      <cc:work rdf:about="">
        <dc:format>image/svg+xml</dc:format>
        <dc:type rdf:resource="http://purl.org/dc/dcmitype/StillImage"></dc:type>
        <dc:title></dc:title>
      </cc:work>
    </rdf:rdf>
  </metadata>
  <g inkscape:groupmode="layer" id="layer4" inkscape:label="fill">
    <polygon id="rect1238" style="fill:#ffb380;fill-opacity:1;stroke:#008000;stroke-width:0.264583;stroke-linecap:round;stroke-linejoin:miter;stroke-miterlimit:4;stroke-dasharray:none;stroke-dashoffset:0;stroke-opacity:1" points="65.8,47.7,71.1,49.1,68.4,59.2,63.1,57.8,65.8,47.7"></polygon>
    <polygon id="rect1240" style="fill:#ffb380;fill-opacity:1;stroke:#008000;stroke-width:0.264583;stroke-linecap:round;stroke-linejoin:miter;stroke-miterlimit:4;stroke-dasharray:none;stroke-dashoffset:0;stroke-opacity:1" points="63.1,57.8,68.4,59.2,65.7,69.3,60.4,67.9,63.1,57.8"></polygon>
    <polygon id="rect1242" style="fill:#ffb380;fill-opacity:1;stroke:#008000;stroke-width:0.264583;stroke-linecap:round;stroke-linejoin:miter;stroke-miterlimit:4;stroke-dasharray:none;stroke-dashoffset:0;stroke-opacity:1" points="60.5,46.3,65.8,47.7,63.1,57.8,57.8,56.4,60.5,46.3"></polygon>
    <polygon id="rect1244" style="fill:#ffb380;fill-opacity:1;stroke:#008000;stroke-width:0.264583;stroke-linecap:round;stroke-linejoin:miter;stroke-miterlimit:4;stroke-dasharray:none;stroke-dashoffset:0;stroke-opacity:1" points="57.8,56.4,63.1,57.8,60.4,67.9,55.1,66.4,57.8,56.4"></polygon>
    <polygon id="rect1246" style="fill:#ffb380;fill-opacity:1;stroke:#008000;stroke-width:0.264583;stroke-linecap:round;stroke-linejoin:miter;stroke-miterlimit:4;stroke-dasharray:none;stroke-dashoffset:0;stroke-opacity:1" points="55.2,44.9,60.5,46.3,57.8,56.4,52.5,55,55.2,44.9"></polygon>
    <polygon id="rect1248" style="fill:#ffb380;fill-opacity:1;stroke:#008000;stroke-width:0.264583;stroke-linecap:round;stroke-linejoin:miter;stroke-miterlimit:4;stroke-dasharray:none;stroke-dashoffset:0;stroke-opacity:1" points="52.5,55,57.8,56.4,55.1,66.4,49.8,65,52.5,55"></polygon>
    <polygon id="rect1250" style="fill:#ffb380;fill-opacity:1;stroke:#008000;stroke-width:0.264583;stroke-linecap:round;stroke-linejoin:miter;stroke-miterlimit:4;stroke-dasharray:none;stroke-dashoffset:0;stroke-opacity:1" points="49.8,43.5,55.2,44.9,52.5,55,47.1,53.5,49.8,43.5"></polygon>
    <polygon id="rect1252" style="fill:#ffb380;fill-opacity:1;stroke:#008000;stroke-width:0.264583;stroke-linecap:round;stroke-linejoin:miter;stroke-miterlimit:4;stroke-dasharray:none;stroke-dashoffset:0;stroke-opacity:1" points="47.1,53.5,52.5,55,49.8,65,44.4,63.6,47.1,53.5"></polygon>
    <polygon id="rect1254" style="fill:#ffb380;fill-opacity:1;stroke:#008000;stroke-width:0.264583;stroke-linecap:round;stroke-linejoin:miter;stroke-miterlimit:4;stroke-dasharray:none;stroke-dashoffset:0;stroke-opacity:1" points="44.5,42,49.8,43.5,47.1,53.5,41.8,52.1,44.5,42"></polygon>
    <polygon id="rect1256" style="fill:#ffb380;fill-opacity:1;stroke:#008000;stroke-width:0.264583;stroke-linecap:round;stroke-linejoin:miter;stroke-miterlimit:4;stroke-dasharray:none;stroke-dashoffset:0;stroke-opacity:1" points="41.8,52.1,47.1,53.5,44.4,63.6,39.1,62.2,41.8,52.1"></polygon>
    <polygon id="rect1258" style="fill:#ffb380;fill-opacity:1;stroke:#008000;stroke-width:0.264583;stroke-linecap:round;stroke-linejoin:miter;stroke-miterlimit:4;stroke-dasharray:none;stroke-dashoffset:0;stroke-opacity:1" points="39.2,40.6,44.5,42,41.8,52.1,36.5,50.7,39.2,40.6"></polygon>
    <polygon id="rect1260" style="fill:#ffb380;fill-opacity:1;stroke:#008000;stroke-width:0.264583;stroke-linecap:round;stroke-linejoin:miter;stroke-miterlimit:4;stroke-dasharray:none;stroke-dashoffset:0;stroke-opacity:1" points="36.5,50.7,41.8,52.1,39.1,62.2,33.8,60.8,36.5,50.7"></polygon>
    <polygon id="rect1262" style="fill:#ffb380;fill-opacity:1;stroke:#008000;stroke-width:0.264583;stroke-linecap:round;stroke-linejoin:miter;stroke-miterlimit:4;stroke-dasharray:none;stroke-dashoffset:0;stroke-opacity:1" points="33.9,39.2,39.2,40.6,36.5,50.7,31.2,49.3,33.9,39.2"></polygon>
    <polygon id="rect1264" style="fill:#ffb380;fill-opacity:1;stroke:#008000;stroke-width:0.264583;stroke-linecap:round;stroke-linejoin:miter;stroke-miterlimit:4;stroke-dasharray:none;stroke-dashoffset:0;stroke-opacity:1" points="31.2,49.3,36.5,50.7,33.8,60.8,28.5,59.3,31.2,49.3"></polygon>
    <polygon id="rect1266" style="fill:#ffb380;fill-opacity:1;stroke:#008000;stroke-width:0.264583;stroke-linecap:round;stroke-linejoin:miter;stroke-miterlimit:4;stroke-dasharray:none;stroke-dashoffset:0;stroke-opacity:1" points="28.6,37.8,33.9,39.2,31.2,49.3,25.9,47.8,28.6,37.8"></polygon>
    <polygon id="rect1268" style="fill:#ffb380;fill-opacity:1;stroke:#008000;stroke-width:0.264583;stroke-linecap:round;stroke-linejoin:miter;stroke-miterlimit:4;stroke-dasharray:none;stroke-dashoffset:0;stroke-opacity:1" points="25.9,47.8,31.2,49.3,28.5,59.3,23.2,57.9,25.9,47.8"></polygon>
    <polygon id="rect1270" style="fill:#ffb380;fill-opacity:1;stroke:#008000;stroke-width:0.264583;stroke-linecap:round;stroke-linejoin:miter;stroke-miterlimit:4;stroke-dasharray:none;stroke-dashoffset:0;stroke-opacity:1" points="58.7,73.1,64,74.6,61.3,84.6,56,83.2,58.7,73.1"></polygon>
    <polygon id="rect1272" style="fill:#ffb380;fill-opacity:1;stroke:#008000;stroke-width:0.264583;stroke-linecap:round;stroke-linejoin:miter;stroke-miterlimit:4;stroke-dasharray:none;stroke-dashoffset:0;stroke-opacity:1" points="56.1,83.3,61.3,84.6,58.6,94.7,53.4,93.3,56.1,83.3"></polygon>
    <polygon id="rect1274" style="fill:#ffb380;fill-opacity:1;stroke:#008000;stroke-width:0.264583;stroke-linecap:round;stroke-linejoin:miter;stroke-miterlimit:4;stroke-dasharray:none;stroke-dashoffset:0;stroke-opacity:1" points="53.3,71.7,58.7,73.1,56,83.2,50.6,81.8,53.3,71.7"></polygon>
    <polygon id="rect1276" style="fill:#ffb380;fill-opacity:1;stroke:#008000;stroke-width:0.264583;stroke-linecap:round;stroke-linejoin:miter;stroke-miterlimit:4;stroke-dasharray:none;stroke-dashoffset:0;stroke-opacity:1" points="51.5,82,56.1,83.3,53.4,93.3,48.8,92.1,51.5,82"></polygon>
    <polygon id="rect1278" style="fill:#ffb380;fill-opacity:1;stroke:#008000;stroke-width:0.264583;stroke-linecap:round;stroke-linejoin:miter;stroke-miterlimit:4;stroke-dasharray:none;stroke-dashoffset:0;stroke-opacity:1" points="48,70.3,53.3,71.7,50.6,81.8,45.3,80.4,48,70.3"></polygon>
    <polygon id="rect1280" style="fill:#ffb380;fill-opacity:1;stroke:#008000;stroke-width:0.264583;stroke-linecap:round;stroke-linejoin:miter;stroke-miterlimit:4;stroke-dasharray:none;stroke-dashoffset:0;stroke-opacity:1" points="45.3,80.4,50.6,81.8,47.9,91.9,42.6,90.4,45.3,80.4"></polygon>
    <polygon id="rect1282" style="fill:#ffb380;fill-opacity:1;stroke:#008000;stroke-width:0.264583;stroke-linecap:round;stroke-linejoin:miter;stroke-miterlimit:4;stroke-dasharray:none;stroke-dashoffset:0;stroke-opacity:1" points="42.7,68.9,48,70.3,45.3,80.4,40,78.9,42.7,68.9"></polygon>
    <polygon id="rect1284" style="fill:#ffb380;fill-opacity:1;stroke:#008000;stroke-width:0.264583;stroke-linecap:round;stroke-linejoin:miter;stroke-miterlimit:4;stroke-dasharray:none;stroke-dashoffset:0;stroke-opacity:1" points="40,78.9,45.3,80.4,42.6,90.4,37.3,89,40,78.9"></polygon>
    <polygon id="rect1286" style="fill:#ffb380;fill-opacity:1;stroke:#008000;stroke-width:0.264583;stroke-linecap:round;stroke-linejoin:miter;stroke-miterlimit:4;stroke-dasharray:none;stroke-dashoffset:0;stroke-opacity:1" points="37.4,67.4,42.7,68.9,40,78.9,34.7,77.5,37.4,67.4"></polygon>
    <polygon id="rect1288" style="fill:#ffb380;fill-opacity:1;stroke:#008000;stroke-width:0.264583;stroke-linecap:round;stroke-linejoin:miter;stroke-miterlimit:4;stroke-dasharray:none;stroke-dashoffset:0;stroke-opacity:1" points="34.7,77.5,40,78.9,37.3,89,32,87.6,34.7,77.5"></polygon>
    <polygon id="rect1290" style="fill:#ffb380;fill-opacity:1;stroke:#008000;stroke-width:0.264583;stroke-linecap:round;stroke-linejoin:miter;stroke-miterlimit:4;stroke-dasharray:none;stroke-dashoffset:0;stroke-opacity:1" points="32.1,66,37.4,67.4,34.7,77.5,29.4,76.1,32.1,66"></polygon>
    <polygon id="rect1292" style="fill:#ffb380;fill-opacity:1;stroke:#008000;stroke-width:0.264583;stroke-linecap:round;stroke-linejoin:miter;stroke-miterlimit:4;stroke-dasharray:none;stroke-dashoffset:0;stroke-opacity:1" points="29.4,76.1,34.7,77.5,32,87.6,26.7,86.2,29.4,76.1"></polygon>
    <polygon id="rect1294" style="fill:#ffb380;fill-opacity:1;stroke:#008000;stroke-width:0.264583;stroke-linecap:round;stroke-linejoin:miter;stroke-miterlimit:4;stroke-dasharray:none;stroke-dashoffset:0;stroke-opacity:1" points="26.8,64.6,32.1,66,29.4,76.1,24.1,74.7,26.8,64.6"></polygon>
    <polygon id="rect1296" style="fill:#ffb380;fill-opacity:1;stroke:#008000;stroke-width:0.264583;stroke-linecap:round;stroke-linejoin:miter;stroke-miterlimit:4;stroke-dasharray:none;stroke-dashoffset:0;stroke-opacity:1" points="24.1,74.7,29.4,76.1,26.7,86.2,21.4,84.8,24.1,74.7"></polygon>
    <polygon id="rect1298" style="fill:#ffb380;fill-opacity:1;stroke:#008000;stroke-width:0.264583;stroke-linecap:round;stroke-linejoin:miter;stroke-miterlimit:4;stroke-dasharray:none;stroke-dashoffset:0;stroke-opacity:1" points="21.5,63.2,26.8,64.6,24.1,74.7,18.8,73.3,21.5,63.2"></polygon>
    <polygon id="rect1300" style="fill:#ffb380;fill-opacity:1;stroke:#008000;stroke-width:0.264583;stroke-linecap:round;stroke-linejoin:miter;stroke-miterlimit:4;stroke-dasharray:none;stroke-dashoffset:0;stroke-opacity:1" points="18.8,73.3,24.1,74.7,21.4,84.8,16.1,83.3,18.8,73.3"></polygon>
    <polygon id="rect1302" style="fill:#ffb380;fill-opacity:1;stroke:#008000;stroke-width:0.264583;stroke-linecap:round;stroke-linejoin:miter;stroke-miterlimit:4;stroke-dasharray:none;stroke-dashoffset:0;stroke-opacity:1" points="80.8,13.4,86.6,15,83.4,26.9,77.6,25.3,80.8,13.4"></polygon>
    <polygon id="rect1304" style="fill:#ffb380;fill-opacity:1;stroke:#008000;stroke-width:0.264583;stroke-linecap:round;stroke-linejoin:miter;stroke-miterlimit:4;stroke-dasharray:none;stroke-dashoffset:0;stroke-opacity:1" points="75.4,12,80.8,13.4,77.6,25.3,72.2,23.9,75.4,12"></polygon>
    <polygon id="rect1306" style="fill:#ffb380;fill-opacity:1;stroke:#008000;stroke-width:0.264583;stroke-linecap:round;stroke-linejoin:miter;stroke-miterlimit:4;stroke-dasharray:none;stroke-dashoffset:0;stroke-opacity:1" points="70,10.5,75.4,12,72.2,23.9,66.8,22.4,70,10.5"></polygon>
    <polygon id="rect1308" style="fill:#ffb380;fill-opacity:1;stroke:#008000;stroke-width:0.264583;stroke-linecap:round;stroke-linejoin:miter;stroke-miterlimit:4;stroke-dasharray:none;stroke-dashoffset:0;stroke-opacity:1" points="65,9.2,70,10.5,66.8,22.4,61.8,21.1,65,9.2"></polygon>
    <polygon id="path1310" style="fill:#ffb380;fill-opacity:1;stroke:#008000;stroke-width:0.264583;stroke-linecap:round;stroke-linejoin:miter;stroke-miterlimit:4;stroke-dasharray:none;stroke-dashoffset:0;stroke-opacity:1" points="59.7,7.8,56.5,19.7,61.8,21.1,65,9.2,59.7,7.8"></polygon>
    <polygon id="path1312" style="fill:#ffb380;fill-opacity:1;stroke:#008000;stroke-width:0.264583;stroke-linecap:round;stroke-linejoin:miter;stroke-miterlimit:4;stroke-dasharray:none;stroke-dashoffset:0;stroke-opacity:1" points="54.2,6.4,51,18.2,56.5,19.7,59.7,7.8,54.2,6.4"></polygon>
    <polygon id="path1314" style="fill:#ffb380;fill-opacity:1;stroke:#008000;stroke-width:0.264583;stroke-linecap:round;stroke-linejoin:miter;stroke-miterlimit:4;stroke-dasharray:none;stroke-dashoffset:0;stroke-opacity:1" points="48.9,5.1,45.8,16.8,51,18.2,54.2,6.4,48.9,5.1"></polygon>
    <polygon id="path1316" style="fill:#ffb380;fill-opacity:1;stroke:#008000;stroke-width:0.264583;stroke-linecap:round;stroke-linejoin:miter;stroke-miterlimit:4;stroke-dasharray:none;stroke-dashoffset:0;stroke-opacity:1" points="43.7,3.7,40.5,15.4,45.8,16.8,48.9,5.1,43.7,3.7"></polygon>
    <polygon id="path1318" style="fill:#ffb380;fill-opacity:1;stroke:#008000;stroke-width:0.264583;stroke-linecap:round;stroke-linejoin:miter;stroke-miterlimit:4;stroke-dasharray:none;stroke-dashoffset:0;stroke-opacity:1" points="38.2,2.3,35.1,14,40.5,15.4,43.7,3.7,38.2,2.3"></polygon>
    <polygon id="path1320" style="fill:#ffb380;fill-opacity:1;stroke:#008000;stroke-width:0.264583;stroke-linecap:round;stroke-linejoin:miter;stroke-miterlimit:4;stroke-dasharray:none;stroke-dashoffset:0;stroke-opacity:1" points="32.8,1,29.7,12.5,35.1,14,38.2,2.3,32.8,1"></polygon>
    <polygon id="path1322" style="fill:#ffb380;fill-opacity:1;stroke:#008000;stroke-width:0.264583;stroke-linecap:round;stroke-linejoin:miter;stroke-miterlimit:4;stroke-dasharray:none;stroke-dashoffset:0;stroke-opacity:1" points="28.7,-0.1,24,11,29.7,12.5,32.8,1,28.7,-0.1"></polygon>
    <polygon id="path1324" style="fill:#ffb380;fill-opacity:1;stroke:#008000;stroke-width:0.264583;stroke-linecap:round;stroke-linejoin:miter;stroke-miterlimit:4;stroke-dasharray:none;stroke-dashoffset:0;stroke-opacity:1" points="70.8,29.2,67.6,41.2,69.6,41.7,72.2,42.4,72.9,42.2,76,30.7,70.8,29.2"></polygon>
    <polygon id="rect1326" style="fill:#ffb380;fill-opacity:1;stroke:#008000;stroke-width:0.264583;stroke-linecap:round;stroke-linejoin:miter;stroke-miterlimit:4;stroke-dasharray:none;stroke-dashoffset:0;stroke-opacity:1" points="65.5,27.8,70.8,29.2,67.6,41.2,62.3,39.8,65.5,27.8"></polygon>
    <polygon id="rect1328" style="fill:#ffb380;fill-opacity:1;stroke:#008000;stroke-width:0.264583;stroke-linecap:round;stroke-linejoin:miter;stroke-miterlimit:4;stroke-dasharray:none;stroke-dashoffset:0;stroke-opacity:1" points="60.3,26.4,65.5,27.8,62.3,39.8,57.1,38.3,60.3,26.4"></polygon>
    <polygon id="rect1330" style="fill:#ffb380;fill-opacity:1;stroke:#008000;stroke-width:0.264583;stroke-linecap:round;stroke-linejoin:miter;stroke-miterlimit:4;stroke-dasharray:none;stroke-dashoffset:0;stroke-opacity:1" points="54.9,25,60.3,26.4,57.1,38.3,51.7,36.9,54.9,25"></polygon>
    <polygon id="path1332" style="fill:#ffb380;fill-opacity:1;stroke:#008000;stroke-width:0.264583;stroke-linecap:round;stroke-linejoin:miter;stroke-miterlimit:4;stroke-dasharray:none;stroke-dashoffset:0;stroke-opacity:1" points="33.6,19.2,30.6,30.2,35.8,32,35.9,32,38.9,20.6,33.6,19.2"></polygon>
    <polygon id="path1334" style="fill:#ffb380;fill-opacity:1;stroke:#008000;stroke-width:0.264583;stroke-linecap:round;stroke-linejoin:miter;stroke-miterlimit:4;stroke-dasharray:none;stroke-dashoffset:0;stroke-opacity:1" points="38.9,20.6,35.9,32,39,33.2,41.1,33.9,44.2,22.1,38.9,20.6"></polygon>
    <polygon id="path1336" style="fill:#ffb380;fill-opacity:1;stroke:#008000;stroke-width:0.264583;stroke-linecap:round;stroke-linejoin:miter;stroke-miterlimit:4;stroke-dasharray:none;stroke-dashoffset:0;stroke-opacity:1" sodipodi:nodetypes="cccccc" points="44.2,22.1,41.1,33.9,45,35.1,46.4,35.4,49.6,23.5,44.2,22.1"></polygon>
    <polygon id="path1338" style="fill:#ffb380;fill-opacity:1;stroke:#008000;stroke-width:0.264583;stroke-linecap:round;stroke-linejoin:miter;stroke-miterlimit:4;stroke-dasharray:none;stroke-dashoffset:0;stroke-opacity:1" points="49.5,23.6,46.4,35.4,51.7,36.9,54.9,25,49.5,23.6"></polygon>
    <polygon id="path1340" style="fill:#ffb380;fill-opacity:1;stroke:#008000;stroke-width:0.264583;stroke-linecap:round;stroke-linejoin:miter;stroke-miterlimit:4;stroke-dasharray:none;stroke-dashoffset:0;stroke-opacity:1" points="21.9,16.1,18,25.3,25.6,28.2,28.4,17.8,21.9,16.1"></polygon>
    <polygon style="fill:#008000;stroke:#008000;stroke-width:0.264583px;stroke-linecap:butt;stroke-linejoin:miter;stroke-opacity:1" id="path1342" sodipodi:nodetypes="ccccccccccc" points="47.6,132.2,36.7,130.8,34.2,129.4,33,127,31.6,125.2,22.7,120.3,20.6,118.7,27.3,103.9,32.1,106.1,53.1,113,47.6,132.2"></polygon>
    <polygon id="path1344" style="fill:#ffb380;fill-opacity:1;stroke:#008000;stroke-width:0.264583;stroke-linecap:round;stroke-linejoin:miter;stroke-miterlimit:4;stroke-dasharray:none;stroke-dashoffset:0;stroke-opacity:1" sodipodi:nodetypes="ccccc" points="14.5,88.5,25,91.3,22.1,101.5,12.7,94.9,14.5,88.5"></polygon>
    <polygon id="path1346" style="fill:#ffb380;fill-opacity:1;stroke:#008000;stroke-width:0.264583;stroke-linecap:round;stroke-linejoin:miter;stroke-miterlimit:4;stroke-dasharray:none;stroke-dashoffset:0;stroke-opacity:1" sodipodi:nodetypes="ccccc" points="25,91.3,30.2,92.7,27.3,103.9,22.1,101.5,25,91.3"></polygon>
    <polygon id="path1348" style="fill:#ffb380;fill-opacity:1;stroke:#008000;stroke-width:0.264583;stroke-linecap:round;stroke-linejoin:miter;stroke-miterlimit:4;stroke-dasharray:none;stroke-dashoffset:0;stroke-opacity:1" sodipodi:nodetypes="cccccc" points="30.2,92.7,27.3,103.9,32.1,106.1,32.3,106.2,35.5,94.1,30.2,92.7"></polygon>
    <polygon id="path1350" style="fill:#ffb380;fill-opacity:1;stroke:#008000;stroke-width:0.264583;stroke-linecap:round;stroke-linejoin:miter;stroke-miterlimit:4;stroke-dasharray:none;stroke-dashoffset:0;stroke-opacity:1" points="35.5,94.1,32.3,106.2,37.4,107.9,40.7,95.5,35.5,94.1"></polygon>
    <polygon id="path1352" style="fill:#ffb380;fill-opacity:1;stroke:#008000;stroke-width:0.264583;stroke-linecap:round;stroke-linejoin:miter;stroke-miterlimit:4;stroke-dasharray:none;stroke-dashoffset:0;stroke-opacity:1" points="40.7,95.5,37.4,107.9,42.6,109.5,46,96.9,40.7,95.5"></polygon>
    <polygon id="path1354" style="fill:#ffb380;fill-opacity:1;stroke:#008000;stroke-width:0.264583;stroke-linecap:round;stroke-linejoin:miter;stroke-miterlimit:4;stroke-dasharray:none;stroke-dashoffset:0;stroke-opacity:1" points="46,96.9,42.6,109.5,47.8,111.2,48,111.3,51.5,98.4,46,96.9"></polygon>
    <polygon id="path1356" style="fill:#ffb380;fill-opacity:1;stroke:#008000;stroke-width:0.264583;stroke-linecap:round;stroke-linejoin:miter;stroke-miterlimit:4;stroke-dasharray:none;stroke-dashoffset:0;stroke-opacity:1" sodipodi:nodetypes="ccccc" points="51.5,98.4,48,111.3,53.1,113,56.7,99.8,51.5,98.4"></polygon>
    <polygon id="path1358" style="fill:#ffb380;fill-opacity:1;stroke:#008000;stroke-width:0.264583;stroke-linecap:round;stroke-linejoin:miter;stroke-miterlimit:4;stroke-dasharray:none;stroke-dashoffset:0;stroke-opacity:1" points="61.9,115.8,58.8,127,64.2,128.3,64.2,128.3,67.2,117.5,67.1,117.5,61.9,115.8"></polygon>
    <polygon id="path1360" style="fill:#ffb380;fill-opacity:1;stroke:#008000;stroke-width:0.264583;stroke-linecap:round;stroke-linejoin:miter;stroke-miterlimit:4;stroke-dasharray:none;stroke-dashoffset:0;stroke-opacity:1" points="67.2,117.5,64.2,128.3,69.6,129.7,72.4,119.1,67.2,117.5"></polygon>
    <polygon id="path1362" style="fill:#ffb380;fill-opacity:1;stroke:#008000;stroke-width:0.264583;stroke-linecap:round;stroke-linejoin:miter;stroke-miterlimit:4;stroke-dasharray:none;stroke-dashoffset:0;stroke-opacity:1" points="72.4,119.1,69.6,129.7,69.7,129.7,74.9,131,75,131.1,77.9,120.2,72.5,119.1,72.4,119.1"></polygon>
    <polygon id="path1364" style="fill:#ffb380;fill-opacity:1;stroke:#008000;stroke-width:0.264583;stroke-linecap:round;stroke-linejoin:miter;stroke-miterlimit:4;stroke-dasharray:none;stroke-dashoffset:0;stroke-opacity:1" points="77.9,120.2,75,131.1,80.1,132.4,80.2,132.4,83.2,121.3,77.9,120.2"></polygon>
    <polygon id="path1366" style="fill:#ffb380;fill-opacity:1;stroke:#008000;stroke-width:0.264583;stroke-linecap:round;stroke-linejoin:miter;stroke-miterlimit:4;stroke-dasharray:none;stroke-dashoffset:0;stroke-opacity:1" points="83.2,121.3,80.2,132.4,85.5,133.8,88.5,122.7,83.3,121.3,83.2,121.3"></polygon>
    <polygon id="path1368" style="fill:#ffb380;fill-opacity:1;stroke:#008000;stroke-width:0.264583;stroke-linecap:round;stroke-linejoin:miter;stroke-miterlimit:4;stroke-dasharray:none;stroke-dashoffset:0;stroke-opacity:1" points="88.5,122.7,85.5,133.8,85.5,133.8,90.8,135.2,93.7,124.1,88.5,122.7"></polygon>
    <polygon id="path1370" style="fill:#ffb380;fill-opacity:1;stroke:#008000;stroke-width:0.264583;stroke-linecap:round;stroke-linejoin:miter;stroke-miterlimit:4;stroke-dasharray:none;stroke-dashoffset:0;stroke-opacity:1" points="93.7,124.1,90.8,135.2,90.8,135.2,96.1,136.5,99,125.9,93.8,124.1,93.7,124.1"></polygon>
    <polygon id="path1372" style="fill:#ffb380;fill-opacity:1;stroke:#008000;stroke-width:0.264583;stroke-linecap:round;stroke-linejoin:miter;stroke-miterlimit:4;stroke-dasharray:none;stroke-dashoffset:0;stroke-opacity:1" points="99,125.9,96.1,136.5,96.2,136.5,101.4,138,101.4,138,104.2,127.8,99,125.9"></polygon>
    <polygon id="path1374" style="fill:#ffb380;fill-opacity:1;stroke:#008000;stroke-width:0.264583;stroke-linecap:round;stroke-linejoin:miter;stroke-miterlimit:4;stroke-dasharray:none;stroke-dashoffset:0;stroke-opacity:1" points="104.2,127.8,101.4,138,106.7,139.3,106.8,139.3,109.6,129,104.2,127.8,104.2,127.8"></polygon>
    <polygon id="path1376" style="fill:#ffb380;fill-opacity:1;stroke:#008000;stroke-width:0.264583;stroke-linecap:round;stroke-linejoin:miter;stroke-miterlimit:4;stroke-dasharray:none;stroke-dashoffset:0;stroke-opacity:1" points="109.6,129,106.8,139.3,112.1,140.8,112.1,140.8,114.9,130.1,109.6,129"></polygon>
    <polygon id="path1378" style="fill:#ffb380;fill-opacity:1;stroke:#008000;stroke-width:0.264583;stroke-linecap:round;stroke-linejoin:miter;stroke-miterlimit:4;stroke-dasharray:none;stroke-dashoffset:0;stroke-opacity:1" points="114.9,130.1,112.1,140.8,119.9,142.2,121.5,134.9,121.6,133.9,121.3,131.5,114.9,130.1"></polygon>
    <polygon id="rect1380" style="fill:#ffb380;fill-opacity:1;stroke:#008000;stroke-width:0.264583;stroke-linecap:round;stroke-linejoin:miter;stroke-miterlimit:4;stroke-dasharray:none;stroke-dashoffset:0;stroke-opacity:1" points="105.2,145.1,110.5,146.5,107.7,157.1,102.4,155.7,105.2,145.1"></polygon>
    <polygon id="path1382" style="fill:#ffb380;fill-opacity:1;stroke:#008000;stroke-width:0.264583;stroke-linecap:round;stroke-linejoin:miter;stroke-miterlimit:4;stroke-dasharray:none;stroke-dashoffset:0;stroke-opacity:1" sodipodi:nodetypes="ccccc" points="110.5,146.5,118.4,147.9,115.7,159.5,107.7,157.1,110.5,146.5"></polygon>
    <polygon id="path1384" style="fill:#ffb380;fill-opacity:1;stroke:#008000;stroke-width:0.264583;stroke-linecap:round;stroke-linejoin:miter;stroke-miterlimit:4;stroke-dasharray:none;stroke-dashoffset:0;stroke-opacity:1" sodipodi:nodetypes="cccccc" points="102.4,155.7,101,161,114.3,164.6,115.7,159.5,107.7,157.1,102.4,155.7"></polygon>
    <polygon id="path1386" style="fill:#ffb380;fill-opacity:1;stroke:#008000;stroke-width:0.264583;stroke-linecap:round;stroke-linejoin:miter;stroke-miterlimit:4;stroke-dasharray:none;stroke-dashoffset:0;stroke-opacity:1" sodipodi:nodetypes="cccccc" points="101,161,114.3,164.6,113.6,167.2,112.8,167.9,99.6,166,101,161"></polygon>
    <polygon id="rect1388" style="fill:#ffb380;fill-opacity:1;stroke:#008000;stroke-width:0.264583;stroke-linecap:round;stroke-linejoin:miter;stroke-miterlimit:4;stroke-dasharray:none;stroke-dashoffset:0;stroke-opacity:1" points="78.7,138.2,84,139.6,81.2,150.2,75.9,148.8,78.7,138.2"></polygon>
    <polygon id="rect1390" style="fill:#ffb380;fill-opacity:1;stroke:#008000;stroke-width:0.264583;stroke-linecap:round;stroke-linejoin:miter;stroke-miterlimit:4;stroke-dasharray:none;stroke-dashoffset:0;stroke-opacity:1" points="84,139.6,89.3,141,86.4,151.6,81.2,150.2,84,139.6"></polygon>
    <polygon id="rect1392" style="fill:#ffb380;fill-opacity:1;stroke:#008000;stroke-width:0.264583;stroke-linecap:round;stroke-linejoin:miter;stroke-miterlimit:4;stroke-dasharray:none;stroke-dashoffset:0;stroke-opacity:1" points="89.3,141,94.6,142.4,91.7,153,86.4,151.6,89.3,141"></polygon>
    <polygon id="rect1394" style="fill:#ffb380;fill-opacity:1;stroke:#008000;stroke-width:0.264583;stroke-linecap:round;stroke-linejoin:miter;stroke-miterlimit:4;stroke-dasharray:none;stroke-dashoffset:0;stroke-opacity:1" points="94.6,142.4,99.8,143.8,97,154.5,91.7,153,94.6,142.4"></polygon>
    <polygon id="rect1396" style="fill:#ffb380;fill-opacity:1;stroke:#008000;stroke-width:0.264583;stroke-linecap:round;stroke-linejoin:miter;stroke-miterlimit:4;stroke-dasharray:none;stroke-dashoffset:0;stroke-opacity:1" points="75.9,148.8,86.6,151.7,85,157.4,74.3,154.5,75.9,148.8"></polygon>
    <polygon id="path1398" style="fill:#ffb380;fill-opacity:1;stroke:#008000;stroke-width:0.264583;stroke-linecap:round;stroke-linejoin:miter;stroke-miterlimit:4;stroke-dasharray:none;stroke-dashoffset:0;stroke-opacity:1" sodipodi:nodetypes="ccccc" points="74.3,154.5,85,157.4,83.5,163,72.8,161,74.3,154.5"></polygon>
    <polygon id="rect1400" style="fill:#ffb380;fill-opacity:1;stroke:#008000;stroke-width:0.264583;stroke-linecap:round;stroke-linejoin:miter;stroke-miterlimit:4;stroke-dasharray:none;stroke-dashoffset:0;stroke-opacity:1" points="86.6,151.7,97.1,154.5,95.7,159.7,85.2,156.9,86.6,151.7"></polygon>
    <polygon id="path1402" style="fill:#ffb380;fill-opacity:1;stroke:#008000;stroke-width:0.264583;stroke-linecap:round;stroke-linejoin:miter;stroke-miterlimit:4;stroke-dasharray:none;stroke-dashoffset:0;stroke-opacity:1" sodipodi:nodetypes="ccccc" points="85.2,156.9,95.7,159.7,94.3,164.9,83.5,163,85.2,156.9"></polygon>
    <polygon id="path1404" style="fill:#ffb380;fill-opacity:1;stroke:#008000;stroke-width:0.264583;stroke-linecap:round;stroke-linejoin:miter;stroke-miterlimit:4;stroke-dasharray:none;stroke-dashoffset:0;stroke-opacity:1" sodipodi:nodetypes="ccccccc" points="54,131.9,62.8,134.1,60.6,142.6,59.4,142.4,58.4,140.9,52.1,138.9,54,131.9"></polygon>
    <polygon id="rect1406" style="fill:#ffb380;fill-opacity:1;stroke:#008000;stroke-width:0.264583;stroke-linecap:round;stroke-linejoin:miter;stroke-miterlimit:4;stroke-dasharray:none;stroke-dashoffset:0;stroke-opacity:1" points="62.8,134.1,73.4,137,71.9,142.7,61.3,139.8,62.8,134.1"></polygon>
    <polygon id="path1408" style="fill:#ffb380;fill-opacity:1;stroke:#008000;stroke-width:0.264583;stroke-linecap:round;stroke-linejoin:miter;stroke-miterlimit:4;stroke-dasharray:none;stroke-dashoffset:0;stroke-opacity:1" sodipodi:nodetypes="ccccccc" points="61.3,139.8,60.6,142.6,59.4,142.4,58.8,145.3,70.4,148.4,71.9,142.7,61.3,139.8"></polygon>
    <polygon style="fill:#008000;stroke:#008000;stroke-width:0.264583px;stroke-linecap:butt;stroke-linejoin:miter;stroke-opacity:1" id="path1410" points="26.6,227.1,22.1,242.9,25.8,246.9,26.9,249.9,27.9,250.7,31.2,250.7,33.2,249.3,37.1,248.9,40.8,246.9,42.3,244.5,49.2,243.7,52.8,244.2,54.7,242.3,56.1,238.5,26.6,227.1"></polygon>
    <polygon id="path1412" style="fill:#ffb380;fill-opacity:1;stroke:#008000;stroke-width:0.264583;stroke-linecap:round;stroke-linejoin:miter;stroke-miterlimit:4;stroke-dasharray:none;stroke-dashoffset:0;stroke-opacity:1" sodipodi:nodetypes="ccccc" points="58.8,145.3,70.4,148.4,68.8,154.2,57.6,151.2,58.8,145.3"></polygon>
    <polygon id="path1414" style="fill:#ffb380;fill-opacity:1;stroke:#008000;stroke-width:0.264583;stroke-linecap:round;stroke-linejoin:miter;stroke-miterlimit:4;stroke-dasharray:none;stroke-dashoffset:0;stroke-opacity:1" sodipodi:nodetypes="ccccc" points="57.6,151.2,68.8,154.2,67.3,159.9,56.3,157.6,57.6,151.2"></polygon>
    <polygon id="path1416" style="fill:#ffb380;fill-opacity:1;stroke:#008000;stroke-width:0.264583;stroke-linecap:round;stroke-linejoin:miter;stroke-miterlimit:4;stroke-dasharray:none;stroke-dashoffset:0;stroke-opacity:1" points="56.1,158.8,55.4,160.1,54.2,163.2,54.1,163.4,64.6,167.3,64.6,167.2,67,161,56.1,158.8"></polygon>
    <polygon id="path1418" style="fill:#ffb380;fill-opacity:1;stroke:#008000;stroke-width:0.264583;stroke-linecap:round;stroke-linejoin:miter;stroke-miterlimit:4;stroke-dasharray:none;stroke-dashoffset:0;stroke-opacity:1" sodipodi:nodetypes="ccccc" points="54.1,163.4,64.6,167.3,62.6,172.4,52.2,168.4,54.1,163.4"></polygon>
    <polygon id="path1420" style="fill:#ffb380;fill-opacity:1;stroke:#008000;stroke-width:0.264583;stroke-linecap:round;stroke-linejoin:miter;stroke-miterlimit:4;stroke-dasharray:none;stroke-dashoffset:0;stroke-opacity:1" sodipodi:nodetypes="ccccc" points="52.2,168.4,62.6,172.4,60.6,177.6,50.3,173.5,52.2,168.4"></polygon>
    <polygon id="path1422" style="fill:#ffb380;fill-opacity:1;stroke:#008000;stroke-width:0.264583;stroke-linecap:round;stroke-linejoin:miter;stroke-miterlimit:4;stroke-dasharray:none;stroke-dashoffset:0;stroke-opacity:1" sodipodi:nodetypes="ccccc" points="50.3,173.5,60.6,177.6,58.7,182.7,48.3,178.7,50.3,173.5"></polygon>
    <polygon id="path1424" style="fill:#ffb380;fill-opacity:1;stroke:#008000;stroke-width:0.264583;stroke-linecap:round;stroke-linejoin:miter;stroke-miterlimit:4;stroke-dasharray:none;stroke-dashoffset:0;stroke-opacity:1" sodipodi:nodetypes="ccccc" points="48.3,178.7,58.7,182.7,56.5,188.2,46.2,184.2,48.3,178.7"></polygon>
    <polygon id="path1426" style="fill:#ffb380;fill-opacity:1;stroke:#008000;stroke-width:0.264583;stroke-linecap:round;stroke-linejoin:miter;stroke-miterlimit:4;stroke-dasharray:none;stroke-dashoffset:0;stroke-opacity:1" sodipodi:nodetypes="ccccccc" points="46.2,184.2,56.5,188.2,55.9,189.9,42.7,184.9,45,185,46,184.5,46.2,184.2"></polygon>
    <polygon id="path1428" style="fill:#ffb380;fill-opacity:1;stroke:#008000;stroke-width:0.264583;stroke-linecap:round;stroke-linejoin:miter;stroke-miterlimit:4;stroke-dasharray:none;stroke-dashoffset:0;stroke-opacity:1" sodipodi:nodetypes="ccccc" points="42.7,184.9,55.9,189.9,53.9,195.1,41.3,190.2,42.7,184.9"></polygon>
    <polygon id="path1430" style="fill:#ffb380;fill-opacity:1;stroke:#008000;stroke-width:0.264583;stroke-linecap:round;stroke-linejoin:miter;stroke-miterlimit:4;stroke-dasharray:none;stroke-dashoffset:0;stroke-opacity:1" sodipodi:nodetypes="ccccc" points="41.3,190.2,53.9,195,51.9,200.2,39.8,195.5,41.3,190.2"></polygon>
    <polygon id="path1432" style="fill:#ffb380;fill-opacity:1;stroke:#008000;stroke-width:0.264583;stroke-linecap:round;stroke-linejoin:miter;stroke-miterlimit:4;stroke-dasharray:none;stroke-dashoffset:0;stroke-opacity:1" sodipodi:nodetypes="ccccc" points="39.8,195.5,51.9,200.1,49.9,205.3,37.4,200.5,39.8,195.5"></polygon>
    <polygon id="path1434" style="fill:#ffb380;fill-opacity:1;stroke:#008000;stroke-width:0.264583;stroke-linecap:round;stroke-linejoin:miter;stroke-miterlimit:4;stroke-dasharray:none;stroke-dashoffset:0;stroke-opacity:1" sodipodi:nodetypes="ccccc" points="37.4,200.5,50,205.2,48,210.4,34.9,205.3,37.4,200.5"></polygon>
    <polygon id="path1436" style="fill:#ffb380;fill-opacity:1;stroke:#008000;stroke-width:0.264583;stroke-linecap:round;stroke-linejoin:miter;stroke-miterlimit:4;stroke-dasharray:none;stroke-dashoffset:0;stroke-opacity:1" sodipodi:nodetypes="ccccc" points="34.9,205.3,48,210.3,46,215.4,32.6,210.3,34.9,205.3"></polygon>
    <polygon id="path1438" style="fill:#ffb380;fill-opacity:1;stroke:#008000;stroke-width:0.264583;stroke-linecap:round;stroke-linejoin:miter;stroke-miterlimit:4;stroke-dasharray:none;stroke-dashoffset:0;stroke-opacity:1" sodipodi:nodetypes="cccccc" points="32.6,210.3,46.1,215.3,44.1,220.5,30.5,215.2,31.4,212.6,32.6,210.3"></polygon>
    <polygon id="path1440" style="fill:#ffb380;fill-opacity:1;stroke:#008000;stroke-width:0.264583;stroke-linecap:round;stroke-linejoin:miter;stroke-miterlimit:4;stroke-dasharray:none;stroke-dashoffset:0;stroke-opacity:1" sodipodi:nodetypes="ccccc" points="30.5,215.2,44.1,220.4,42.1,225.6,28.8,220.4,30.5,215.2"></polygon>
    <polygon id="path1442" style="fill:#ffb380;fill-opacity:1;stroke:#008000;stroke-width:0.264583;stroke-linecap:round;stroke-linejoin:miter;stroke-miterlimit:4;stroke-dasharray:none;stroke-dashoffset:0;stroke-opacity:1" points="72.3,162.6,70.3,167.6,80.7,171.5,81.7,169.2,82.2,166.9,83.3,164.7,72.3,162.6"></polygon>
    <polygon id="path1444" style="fill:#ffb380;fill-opacity:1;stroke:#008000;stroke-width:0.264583;stroke-linecap:round;stroke-linejoin:miter;stroke-miterlimit:4;stroke-dasharray:none;stroke-dashoffset:0;stroke-opacity:1" sodipodi:nodetypes="ccccc" points="70.3,167.6,80.7,171.5,78.6,176.7,68.4,172.7,70.3,167.6"></polygon>
    <polygon id="path1446" style="fill:#ffb380;fill-opacity:1;stroke:#008000;stroke-width:0.264583;stroke-linecap:round;stroke-linejoin:miter;stroke-miterlimit:4;stroke-dasharray:none;stroke-dashoffset:0;stroke-opacity:1" sodipodi:nodetypes="ccccc" points="68.4,172.7,78.6,176.7,76.8,181.8,66.4,177.9,68.4,172.7"></polygon>
    <polygon id="path1448" style="fill:#ffb380;fill-opacity:1;stroke:#008000;stroke-width:0.264583;stroke-linecap:round;stroke-linejoin:miter;stroke-miterlimit:4;stroke-dasharray:none;stroke-dashoffset:0;stroke-opacity:1" sodipodi:nodetypes="ccccc" points="66.4,177.9,76.8,181.8,74.9,187,64.4,183,66.4,177.9"></polygon>
    <polygon id="path1450" style="fill:#ffb380;fill-opacity:1;stroke:#008000;stroke-width:0.264583;stroke-linecap:round;stroke-linejoin:miter;stroke-miterlimit:4;stroke-dasharray:none;stroke-dashoffset:0;stroke-opacity:1" sodipodi:nodetypes="ccccc" points="64.4,183,74.9,187,72.8,192.1,62.5,188.1,64.4,183"></polygon>
    <polygon id="path1452" style="fill:#ffb380;fill-opacity:1;stroke:#008000;stroke-width:0.264583;stroke-linecap:round;stroke-linejoin:miter;stroke-miterlimit:4;stroke-dasharray:none;stroke-dashoffset:0;stroke-opacity:1" sodipodi:nodetypes="ccccc" points="62.5,188.1,72.8,192.1,70.9,197.3,60.5,193.3,62.5,188.1"></polygon>
    <polygon id="path1454" style="fill:#ffb380;fill-opacity:1;stroke:#008000;stroke-width:0.264583;stroke-linecap:round;stroke-linejoin:miter;stroke-miterlimit:4;stroke-dasharray:none;stroke-dashoffset:0;stroke-opacity:1" sodipodi:nodetypes="ccccc" points="60.5,193.3,70.9,197.3,69.1,202.3,58.6,198.4,60.5,193.3"></polygon>
    <polygon id="path1456" style="fill:#ffb380;fill-opacity:1;stroke:#008000;stroke-width:0.264583;stroke-linecap:round;stroke-linejoin:miter;stroke-miterlimit:4;stroke-dasharray:none;stroke-dashoffset:0;stroke-opacity:1" sodipodi:nodetypes="ccccc" points="58.6,198.4,69.1,202.3,67.2,207.5,56.6,203.5,58.6,198.4"></polygon>
    <polygon id="path1458" style="fill:#ffb380;fill-opacity:1;stroke:#008000;stroke-width:0.264583;stroke-linecap:round;stroke-linejoin:miter;stroke-miterlimit:4;stroke-dasharray:none;stroke-dashoffset:0;stroke-opacity:1" sodipodi:nodetypes="ccccc" points="56.6,203.5,67.2,207.5,65.3,212.6,54.6,208.6,56.6,203.5"></polygon>
    <polygon id="path1460" style="fill:#ffb380;fill-opacity:1;stroke:#008000;stroke-width:0.264583;stroke-linecap:round;stroke-linejoin:miter;stroke-miterlimit:4;stroke-dasharray:none;stroke-dashoffset:0;stroke-opacity:1" sodipodi:nodetypes="ccccc" points="54.6,208.6,65.3,212.6,63.5,217.8,52.6,213.7,54.6,208.6"></polygon>
    <polygon id="path1462" style="fill:#ffb380;fill-opacity:1;stroke:#008000;stroke-width:0.264583;stroke-linecap:round;stroke-linejoin:miter;stroke-miterlimit:4;stroke-dasharray:none;stroke-dashoffset:0;stroke-opacity:1" sodipodi:nodetypes="ccccc" points="52.6,213.7,63.5,217.8,61.7,222.9,50.6,218.8,52.6,213.7"></polygon>
    <polygon id="path1464" style="fill:#ffb380;fill-opacity:1;stroke:#008000;stroke-width:0.264583;stroke-linecap:round;stroke-linejoin:miter;stroke-miterlimit:4;stroke-dasharray:none;stroke-dashoffset:0;stroke-opacity:1" sodipodi:nodetypes="ccccc" points="50.6,218.8,61.7,222.9,59.8,228.1,48.7,223.9,50.6,218.8"></polygon>
    <polygon id="path1466" style="fill:#ffb380;fill-opacity:1;stroke:#008000;stroke-width:0.264583;stroke-linecap:round;stroke-linejoin:miter;stroke-miterlimit:4;stroke-dasharray:none;stroke-dashoffset:0;stroke-opacity:1" sodipodi:nodetypes="ccccc" points="48.7,223.9,59.8,228.1,58.1,233.3,46.8,229,48.7,223.9"></polygon>
    <polygon id="path1468" style="fill:#ffb380;fill-opacity:1;stroke:#008000;stroke-width:0.264583;stroke-linecap:round;stroke-linejoin:miter;stroke-miterlimit:4;stroke-dasharray:none;stroke-dashoffset:0;stroke-opacity:1" sodipodi:nodetypes="ccccc" points="46.8,229,58.1,233.3,56.1,238.5,44.8,234.1,46.8,229"></polygon>
  </g>
</svg>
