<!--?xml version="1.0" encoding="UTF-8" standalone="no"?-->
<svg xmlns:dc="http://purl.org/dc/elements/1.1/" xmlns:cc="http://creativecommons.org/ns#" xmlns:rdf="http://www.w3.org/1999/02/22-rdf-syntax-ns#" xmlns:svg="http://www.w3.org/2000/svg" xmlns="http://www.w3.org/2000/svg" xmlns:sodipodi="http://sodipodi.sourceforge.net/DTD/sodipodi-0.dtd" xmlns:inkscape="http://www.inkscape.org/namespaces/inkscape" width="1052" height="744" viewBox="0 0 278.34165 196.85" version="1.1" id="svg8" inkscape:version="1.0.2 (1.0.2+r75+1)" sodipodi:docname="Site plan Wijaya Kusuma- tahap 2_Canvas.svg" inkscape:export-filename="/home/nineone/Downloads/Site plan Wijaya Kusuma- tahap 2.png" inkscape:export-xdpi="96" inkscape:export-ydpi="96">
  <defs id="defs2"></defs>
  <sodipodi:namedview id="base" pagecolor="#ffffff" bordercolor="#666666" borderopacity="1.0" inkscape:pageopacity="0.0" inkscape:pageshadow="2" inkscape:zoom="0.35355339" inkscape:cx="512.60553" inkscape:cy="395.19857" inkscape:document-units="px" inkscape:current-layer="layer4" showgrid="false" inkscape:window-width="1360" inkscape:window-height="744" inkscape:window-x="1366" inkscape:window-y="0" inkscape:window-maximized="1" inkscape:document-rotation="0" units="px" inkscape:snap-bbox="false" inkscape:snap-intersection-paths="false" inkscape:snap-smooth-nodes="true"></sodipodi:namedview>
  <metadata id="metadata5">
    <rdf:rdf>
      <cc:work rdf:about="">
        <dc:format>image/svg+xml</dc:format>
        <dc:type rdf:resource="http://purl.org/dc/dcmitype/StillImage"></dc:type>
        <dc:title></dc:title>
      </cc:work>
    </rdf:rdf>
  </metadata>
  <g inkscape:groupmode="layer" id="layer4" inkscape:label="fill">
    <polygon id="rect1238" style="fill:#ffb380;fill-opacity:1;stroke:#008000;stroke-width:0.264583;stroke-linecap:round;stroke-linejoin:miter;stroke-miterlimit:4;stroke-dasharray:none;stroke-dashoffset:0;stroke-opacity:1" points="138.2,43.7,141.9,44.7,140,51.8,136.3,50.8,138.2,43.7"></polygon>
    <polygon id="rect1240" style="fill:#ffb380;fill-opacity:1;stroke:#008000;stroke-width:0.264583;stroke-linecap:round;stroke-linejoin:miter;stroke-miterlimit:4;stroke-dasharray:none;stroke-dashoffset:0;stroke-opacity:1" points="136.3,50.8,140,51.8,138.1,58.9,134.4,57.9,136.3,50.8"></polygon>
    <polygon id="rect1242" style="fill:#ffb380;fill-opacity:1;stroke:#008000;stroke-width:0.264583;stroke-linecap:round;stroke-linejoin:miter;stroke-miterlimit:4;stroke-dasharray:none;stroke-dashoffset:0;stroke-opacity:1" points="134.5,42.7,138.2,43.7,136.3,50.8,132.5,49.8,134.5,42.7"></polygon>
    <polygon id="rect1244" style="fill:#ffb380;fill-opacity:1;stroke:#008000;stroke-width:0.264583;stroke-linecap:round;stroke-linejoin:miter;stroke-miterlimit:4;stroke-dasharray:none;stroke-dashoffset:0;stroke-opacity:1" points="132.5,49.8,136.3,50.8,134.4,57.9,130.6,56.9,132.5,49.8"></polygon>
    <polygon id="rect1246" style="fill:#ffb380;fill-opacity:1;stroke:#008000;stroke-width:0.264583;stroke-linecap:round;stroke-linejoin:miter;stroke-miterlimit:4;stroke-dasharray:none;stroke-dashoffset:0;stroke-opacity:1" points="130.7,41.7,134.5,42.7,132.5,49.8,128.8,48.8,130.7,41.7"></polygon>
    <polygon id="rect1248" style="fill:#ffb380;fill-opacity:1;stroke:#008000;stroke-width:0.264583;stroke-linecap:round;stroke-linejoin:miter;stroke-miterlimit:4;stroke-dasharray:none;stroke-dashoffset:0;stroke-opacity:1" points="128.8,48.8,132.5,49.8,130.6,56.9,126.9,55.9,128.8,48.8"></polygon>
    <polygon id="rect1250" style="fill:#ffb380;fill-opacity:1;stroke:#008000;stroke-width:0.264583;stroke-linecap:round;stroke-linejoin:miter;stroke-miterlimit:4;stroke-dasharray:none;stroke-dashoffset:0;stroke-opacity:1" points="127,40.7,130.7,41.7,128.8,48.8,125.1,47.8,127,40.7"></polygon>
    <polygon id="rect1252" style="fill:#ffb380;fill-opacity:1;stroke:#008000;stroke-width:0.264583;stroke-linecap:round;stroke-linejoin:miter;stroke-miterlimit:4;stroke-dasharray:none;stroke-dashoffset:0;stroke-opacity:1" points="125.1,47.8,128.8,48.8,126.9,55.9,123.2,54.9,125.1,47.8"></polygon>
    <polygon id="rect1254" style="fill:#ffb380;fill-opacity:1;stroke:#008000;stroke-width:0.264583;stroke-linecap:round;stroke-linejoin:miter;stroke-miterlimit:4;stroke-dasharray:none;stroke-dashoffset:0;stroke-opacity:1" points="123.2,39.7,127,40.7,125.1,47.8,121.3,46.8,123.2,39.7"></polygon>
    <polygon id="rect1256" style="fill:#ffb380;fill-opacity:1;stroke:#008000;stroke-width:0.264583;stroke-linecap:round;stroke-linejoin:miter;stroke-miterlimit:4;stroke-dasharray:none;stroke-dashoffset:0;stroke-opacity:1" points="121.3,46.8,125.1,47.8,123.2,54.9,119.4,53.9,121.3,46.8"></polygon>
    <polygon id="rect1258" style="fill:#ffb380;fill-opacity:1;stroke:#008000;stroke-width:0.264583;stroke-linecap:round;stroke-linejoin:miter;stroke-miterlimit:4;stroke-dasharray:none;stroke-dashoffset:0;stroke-opacity:1" points="119.5,38.7,123.2,39.7,121.3,46.8,117.6,45.8,119.5,38.7"></polygon>
    <polygon id="rect1260" style="fill:#ffb380;fill-opacity:1;stroke:#008000;stroke-width:0.264583;stroke-linecap:round;stroke-linejoin:miter;stroke-miterlimit:4;stroke-dasharray:none;stroke-dashoffset:0;stroke-opacity:1" points="117.6,45.8,121.3,46.8,119.4,53.9,115.7,52.9,117.6,45.8"></polygon>
    <polygon id="rect1262" style="fill:#ffb380;fill-opacity:1;stroke:#008000;stroke-width:0.264583;stroke-linecap:round;stroke-linejoin:miter;stroke-miterlimit:4;stroke-dasharray:none;stroke-dashoffset:0;stroke-opacity:1" points="115.8,37.7,119.5,38.7,117.6,45.8,113.9,44.8,115.8,37.7"></polygon>
    <polygon id="rect1264" style="fill:#ffb380;fill-opacity:1;stroke:#008000;stroke-width:0.264583;stroke-linecap:round;stroke-linejoin:miter;stroke-miterlimit:4;stroke-dasharray:none;stroke-dashoffset:0;stroke-opacity:1" points="113.9,44.8,117.6,45.8,115.7,52.9,112,51.9,113.9,44.8"></polygon>
    <polygon id="rect1266" style="fill:#ffb380;fill-opacity:1;stroke:#008000;stroke-width:0.264583;stroke-linecap:round;stroke-linejoin:miter;stroke-miterlimit:4;stroke-dasharray:none;stroke-dashoffset:0;stroke-opacity:1" points="112,36.7,115.8,37.7,113.9,44.8,110.1,43.8,112,36.7"></polygon>
    <polygon id="rect1268" style="fill:#ffb380;fill-opacity:1;stroke:#008000;stroke-width:0.264583;stroke-linecap:round;stroke-linejoin:miter;stroke-miterlimit:4;stroke-dasharray:none;stroke-dashoffset:0;stroke-opacity:1" points="110.1,43.8,113.9,44.8,112,51.9,108.2,50.9,110.1,43.8"></polygon>
    <polygon id="rect1270" style="fill:#ffb380;fill-opacity:1;stroke:#008000;stroke-width:0.264583;stroke-linecap:round;stroke-linejoin:miter;stroke-miterlimit:4;stroke-dasharray:none;stroke-dashoffset:0;stroke-opacity:1" points="133.2,61.7,136.9,62.7,135,69.8,131.3,68.8,133.2,61.7"></polygon>
    <polygon id="rect1272" style="fill:#ffb380;fill-opacity:1;stroke:#008000;stroke-width:0.264583;stroke-linecap:round;stroke-linejoin:miter;stroke-miterlimit:4;stroke-dasharray:none;stroke-dashoffset:0;stroke-opacity:1" points="131.4,68.8,135,69.8,133.1,76.9,129.5,75.9,131.4,68.8"></polygon>
    <polygon id="rect1274" style="fill:#ffb380;fill-opacity:1;stroke:#008000;stroke-width:0.264583;stroke-linecap:round;stroke-linejoin:miter;stroke-miterlimit:4;stroke-dasharray:none;stroke-dashoffset:0;stroke-opacity:1" points="129.4,60.7,133.2,61.7,131.3,68.8,127.5,67.8,129.4,60.7"></polygon>
    <polygon id="rect1276" style="fill:#ffb380;fill-opacity:1;stroke:#008000;stroke-width:0.264583;stroke-linecap:round;stroke-linejoin:miter;stroke-miterlimit:4;stroke-dasharray:none;stroke-dashoffset:0;stroke-opacity:1" points="128.1,67.9,131.4,68.8,129.5,75.9,126.2,75,128.1,67.9"></polygon>
    <polygon id="rect1278" style="fill:#ffb380;fill-opacity:1;stroke:#008000;stroke-width:0.264583;stroke-linecap:round;stroke-linejoin:miter;stroke-miterlimit:4;stroke-dasharray:none;stroke-dashoffset:0;stroke-opacity:1" points="125.7,59.7,129.4,60.7,127.5,67.8,123.8,66.8,125.7,59.7"></polygon>
    <polygon id="rect1280" style="fill:#ffb380;fill-opacity:1;stroke:#008000;stroke-width:0.264583;stroke-linecap:round;stroke-linejoin:miter;stroke-miterlimit:4;stroke-dasharray:none;stroke-dashoffset:0;stroke-opacity:1" points="123.8,66.8,127.5,67.8,125.6,74.9,121.9,73.9,123.8,66.8"></polygon>
    <polygon id="rect1282" style="fill:#ffb380;fill-opacity:1;stroke:#008000;stroke-width:0.264583;stroke-linecap:round;stroke-linejoin:miter;stroke-miterlimit:4;stroke-dasharray:none;stroke-dashoffset:0;stroke-opacity:1" points="122,58.6,125.7,59.7,123.8,66.8,120.1,65.8,122,58.6"></polygon>
    <polygon id="rect1284" style="fill:#ffb380;fill-opacity:1;stroke:#008000;stroke-width:0.264583;stroke-linecap:round;stroke-linejoin:miter;stroke-miterlimit:4;stroke-dasharray:none;stroke-dashoffset:0;stroke-opacity:1" points="120.1,65.8,123.8,66.8,121.9,73.9,118.2,72.9,120.1,65.8"></polygon>
    <polygon id="rect1286" style="fill:#ffb380;fill-opacity:1;stroke:#008000;stroke-width:0.264583;stroke-linecap:round;stroke-linejoin:miter;stroke-miterlimit:4;stroke-dasharray:none;stroke-dashoffset:0;stroke-opacity:1" points="118.2,57.6,122,58.6,120.1,65.8,116.3,64.8,118.2,57.6"></polygon>
    <polygon id="rect1288" style="fill:#ffb380;fill-opacity:1;stroke:#008000;stroke-width:0.264583;stroke-linecap:round;stroke-linejoin:miter;stroke-miterlimit:4;stroke-dasharray:none;stroke-dashoffset:0;stroke-opacity:1" points="116.3,64.8,120.1,65.8,118.2,72.9,114.4,71.9,116.3,64.8"></polygon>
    <polygon id="rect1290" style="fill:#ffb380;fill-opacity:1;stroke:#008000;stroke-width:0.264583;stroke-linecap:round;stroke-linejoin:miter;stroke-miterlimit:4;stroke-dasharray:none;stroke-dashoffset:0;stroke-opacity:1" points="114.5,56.6,118.2,57.6,116.3,64.8,112.6,63.7,114.5,56.6"></polygon>
    <polygon id="rect1292" style="fill:#ffb380;fill-opacity:1;stroke:#008000;stroke-width:0.264583;stroke-linecap:round;stroke-linejoin:miter;stroke-miterlimit:4;stroke-dasharray:none;stroke-dashoffset:0;stroke-opacity:1" points="112.6,63.7,116.3,64.8,114.4,71.9,110.7,70.9,112.6,63.7"></polygon>
    <polygon id="rect1294" style="fill:#ffb380;fill-opacity:1;stroke:#008000;stroke-width:0.264583;stroke-linecap:round;stroke-linejoin:miter;stroke-miterlimit:4;stroke-dasharray:none;stroke-dashoffset:0;stroke-opacity:1" points="110.7,55.6,114.5,56.6,112.6,63.7,108.8,62.7,110.7,55.6"></polygon>
    <polygon id="rect1296" style="fill:#ffb380;fill-opacity:1;stroke:#008000;stroke-width:0.264583;stroke-linecap:round;stroke-linejoin:miter;stroke-miterlimit:4;stroke-dasharray:none;stroke-dashoffset:0;stroke-opacity:1" points="108.8,62.7,112.6,63.7,110.7,70.9,106.9,69.9,108.8,62.7"></polygon>
    <polygon id="rect1298" style="fill:#ffb380;fill-opacity:1;stroke:#008000;stroke-width:0.264583;stroke-linecap:round;stroke-linejoin:miter;stroke-miterlimit:4;stroke-dasharray:none;stroke-dashoffset:0;stroke-opacity:1" points="107,54.6,110.7,55.6,108.8,62.7,105.1,61.7,107,54.6"></polygon>
    <polygon id="rect1300" style="fill:#ffb380;fill-opacity:1;stroke:#008000;stroke-width:0.264583;stroke-linecap:round;stroke-linejoin:miter;stroke-miterlimit:4;stroke-dasharray:none;stroke-dashoffset:0;stroke-opacity:1" points="105.1,61.7,108.8,62.7,106.9,69.9,103.2,68.8,105.1,61.7"></polygon>
    <polygon id="rect1302" style="fill:#ffb380;fill-opacity:1;stroke:#008000;stroke-width:0.264583;stroke-linecap:round;stroke-linejoin:miter;stroke-miterlimit:4;stroke-dasharray:none;stroke-dashoffset:0;stroke-opacity:1" points="148.8,19.5,152.9,20.6,150.6,29.1,146.5,28,148.8,19.5"></polygon>
    <polygon id="rect1304" style="fill:#ffb380;fill-opacity:1;stroke:#008000;stroke-width:0.264583;stroke-linecap:round;stroke-linejoin:miter;stroke-miterlimit:4;stroke-dasharray:none;stroke-dashoffset:0;stroke-opacity:1" points="145,18.5,148.8,19.5,146.5,28,142.7,26.9,145,18.5"></polygon>
    <polygon id="rect1306" style="fill:#ffb380;fill-opacity:1;stroke:#008000;stroke-width:0.264583;stroke-linecap:round;stroke-linejoin:miter;stroke-miterlimit:4;stroke-dasharray:none;stroke-dashoffset:0;stroke-opacity:1" points="141.1,17.5,145,18.5,142.7,26.9,138.9,25.9,141.1,17.5"></polygon>
    <polygon id="rect1308" style="fill:#ffb380;fill-opacity:1;stroke:#008000;stroke-width:0.264583;stroke-linecap:round;stroke-linejoin:miter;stroke-miterlimit:4;stroke-dasharray:none;stroke-dashoffset:0;stroke-opacity:1" points="137.6,16.5,141.1,17.5,138.9,25.9,135.4,25,137.6,16.5"></polygon>
    <polygon id="path1310" style="fill:#ffb380;fill-opacity:1;stroke:#008000;stroke-width:0.264583;stroke-linecap:round;stroke-linejoin:miter;stroke-miterlimit:4;stroke-dasharray:none;stroke-dashoffset:0;stroke-opacity:1" points="133.9,15.6,131.6,24,135.4,25,137.6,16.5,133.9,15.6"></polygon>
    <polygon id="path1312" style="fill:#ffb380;fill-opacity:1;stroke:#008000;stroke-width:0.264583;stroke-linecap:round;stroke-linejoin:miter;stroke-miterlimit:4;stroke-dasharray:none;stroke-dashoffset:0;stroke-opacity:1" points="130,14.6,127.8,22.9,131.6,24,133.9,15.6,130,14.6"></polygon>
    <polygon id="path1314" style="fill:#ffb380;fill-opacity:1;stroke:#008000;stroke-width:0.264583;stroke-linecap:round;stroke-linejoin:miter;stroke-miterlimit:4;stroke-dasharray:none;stroke-dashoffset:0;stroke-opacity:1" points="126.3,13.7,124.1,21.9,127.8,22.9,130,14.6,126.3,13.7"></polygon>
    <polygon id="path1316" style="fill:#ffb380;fill-opacity:1;stroke:#008000;stroke-width:0.264583;stroke-linecap:round;stroke-linejoin:miter;stroke-miterlimit:4;stroke-dasharray:none;stroke-dashoffset:0;stroke-opacity:1" points="122.6,12.7,120.4,21,124.1,21.9,126.3,13.7,122.6,12.7"></polygon>
    <polygon id="path1318" style="fill:#ffb380;fill-opacity:1;stroke:#008000;stroke-width:0.264583;stroke-linecap:round;stroke-linejoin:miter;stroke-miterlimit:4;stroke-dasharray:none;stroke-dashoffset:0;stroke-opacity:1" points="118.8,11.7,116.6,19.9,120.4,21,122.6,12.7,118.8,11.7"></polygon>
    <polygon id="path1320" style="fill:#ffb380;fill-opacity:1;stroke:#008000;stroke-width:0.264583;stroke-linecap:round;stroke-linejoin:miter;stroke-miterlimit:4;stroke-dasharray:none;stroke-dashoffset:0;stroke-opacity:1" points="114.9,10.7,112.8,18.9,116.6,19.9,118.8,11.7,114.9,10.7"></polygon>
    <polygon id="path1322" style="fill:#ffb380;fill-opacity:1;stroke:#008000;stroke-width:0.264583;stroke-linecap:round;stroke-linejoin:miter;stroke-miterlimit:4;stroke-dasharray:none;stroke-dashoffset:0;stroke-opacity:1" points="112.1,10,108.8,17.8,112.8,18.9,114.9,10.7,112.1,10"></polygon>
    <polygon id="path1324" style="fill:#ffb380;fill-opacity:1;stroke:#008000;stroke-width:0.264583;stroke-linecap:round;stroke-linejoin:miter;stroke-miterlimit:4;stroke-dasharray:none;stroke-dashoffset:0;stroke-opacity:1" points="141.7,30.7,139.5,39.1,140.9,39.5,142.7,40,143.3,39.8,145.4,31.7,141.7,30.7"></polygon>
    <polygon id="rect1326" style="fill:#ffb380;fill-opacity:1;stroke:#008000;stroke-width:0.264583;stroke-linecap:round;stroke-linejoin:miter;stroke-miterlimit:4;stroke-dasharray:none;stroke-dashoffset:0;stroke-opacity:1" points="138,29.7,141.7,30.7,139.5,39.1,135.8,38.1,138,29.7"></polygon>
    <polygon id="rect1328" style="fill:#ffb380;fill-opacity:1;stroke:#008000;stroke-width:0.264583;stroke-linecap:round;stroke-linejoin:miter;stroke-miterlimit:4;stroke-dasharray:none;stroke-dashoffset:0;stroke-opacity:1" points="134.3,28.7,138,29.7,135.8,38.1,132.1,37.1,134.3,28.7"></polygon>
    <polygon id="rect1330" style="fill:#ffb380;fill-opacity:1;stroke:#008000;stroke-width:0.264583;stroke-linecap:round;stroke-linejoin:miter;stroke-miterlimit:4;stroke-dasharray:none;stroke-dashoffset:0;stroke-opacity:1" points="130.5,27.7,134.3,28.7,132.1,37.1,128.3,36.1,130.5,27.7"></polygon>
    <polygon id="path1332" style="fill:#ffb380;fill-opacity:1;stroke:#008000;stroke-width:0.264583;stroke-linecap:round;stroke-linejoin:miter;stroke-miterlimit:4;stroke-dasharray:none;stroke-dashoffset:0;stroke-opacity:1" points="115.5,23.6,113.4,31.4,117.1,32.6,117.1,32.7,119.3,24.6,115.5,23.6"></polygon>
    <polygon id="path1334" style="fill:#ffb380;fill-opacity:1;stroke:#008000;stroke-width:0.264583;stroke-linecap:round;stroke-linejoin:miter;stroke-miterlimit:4;stroke-dasharray:none;stroke-dashoffset:0;stroke-opacity:1" points="119.3,24.6,117.1,32.7,119.3,33.5,120.8,34,123,25.6,119.3,24.6"></polygon>
    <polygon id="path1336" style="fill:#ffb380;fill-opacity:1;stroke:#008000;stroke-width:0.264583;stroke-linecap:round;stroke-linejoin:miter;stroke-miterlimit:4;stroke-dasharray:none;stroke-dashoffset:0;stroke-opacity:1" sodipodi:nodetypes="cccccc" points="123,25.6,120.8,34,123.6,34.8,124.5,35.1,126.8,26.7,123,25.6"></polygon>
    <polygon id="path1338" style="fill:#ffb380;fill-opacity:1;stroke:#008000;stroke-width:0.264583;stroke-linecap:round;stroke-linejoin:miter;stroke-miterlimit:4;stroke-dasharray:none;stroke-dashoffset:0;stroke-opacity:1" points="126.8,26.7,124.5,35.1,128.3,36.1,130.5,27.7,126.8,26.7"></polygon>
    <polygon id="path1340" style="fill:#ffb380;fill-opacity:1;stroke:#008000;stroke-width:0.264583;stroke-linecap:round;stroke-linejoin:miter;stroke-miterlimit:4;stroke-dasharray:none;stroke-dashoffset:0;stroke-opacity:1" points="107.3,21.4,104.5,27.9,109.9,30,111.8,22.6,107.3,21.4"></polygon>
    <polygon style="fill:#008000;stroke:#008000;stroke-width:0.264583px;stroke-linecap:butt;stroke-linejoin:miter;stroke-opacity:1" id="path1342" sodipodi:nodetypes="ccccccccccc" points="125.4,103.3,117.7,102.3,115.9,101.4,115.1,99.6,114.1,98.4,107.8,94.9,106.4,93.8,111.1,83.4,114.5,84.9,129.3,89.8,125.4,103.3"></polygon>
    <polygon id="path1344" style="fill:#ffb380;fill-opacity:1;stroke:#008000;stroke-width:0.264583;stroke-linecap:round;stroke-linejoin:miter;stroke-miterlimit:4;stroke-dasharray:none;stroke-dashoffset:0;stroke-opacity:1" sodipodi:nodetypes="ccccc" points="102.1,72.5,109.5,74.5,107.4,81.7,100.8,77,102.1,72.5"></polygon>
    <polygon id="path1346" style="fill:#ffb380;fill-opacity:1;stroke:#008000;stroke-width:0.264583;stroke-linecap:round;stroke-linejoin:miter;stroke-miterlimit:4;stroke-dasharray:none;stroke-dashoffset:0;stroke-opacity:1" sodipodi:nodetypes="ccccc" points="109.5,74.5,113.1,75.5,111.1,83.4,107.4,81.7,109.5,74.5"></polygon>
    <polygon id="path1348" style="fill:#ffb380;fill-opacity:1;stroke:#008000;stroke-width:0.264583;stroke-linecap:round;stroke-linejoin:miter;stroke-miterlimit:4;stroke-dasharray:none;stroke-dashoffset:0;stroke-opacity:1" sodipodi:nodetypes="cccccc" points="113.1,75.5,111.1,83.4,114.5,84.9,114.6,84.9,116.9,76.5,113.1,75.5"></polygon>
    <polygon id="path1350" style="fill:#ffb380;fill-opacity:1;stroke:#008000;stroke-width:0.264583;stroke-linecap:round;stroke-linejoin:miter;stroke-miterlimit:4;stroke-dasharray:none;stroke-dashoffset:0;stroke-opacity:1" points="116.9,76.5,114.6,84.9,118.2,86.1,120.6,77.5,116.9,76.5"></polygon>
    <polygon id="path1352" style="fill:#ffb380;fill-opacity:1;stroke:#008000;stroke-width:0.264583;stroke-linecap:round;stroke-linejoin:miter;stroke-miterlimit:4;stroke-dasharray:none;stroke-dashoffset:0;stroke-opacity:1" points="120.6,77.5,118.2,86.1,121.9,87.3,124.3,78.4,120.6,77.5"></polygon>
    <polygon id="path1354" style="fill:#ffb380;fill-opacity:1;stroke:#008000;stroke-width:0.264583;stroke-linecap:round;stroke-linejoin:miter;stroke-miterlimit:4;stroke-dasharray:none;stroke-dashoffset:0;stroke-opacity:1" points="124.3,78.4,121.9,87.3,125.5,88.5,125.7,88.6,128.1,79.5,124.3,78.4"></polygon>
    <polygon id="path1356" style="fill:#ffb380;fill-opacity:1;stroke:#008000;stroke-width:0.264583;stroke-linecap:round;stroke-linejoin:miter;stroke-miterlimit:4;stroke-dasharray:none;stroke-dashoffset:0;stroke-opacity:1" sodipodi:nodetypes="ccccc" points="128.1,79.5,125.7,88.6,129.3,89.8,131.8,80.5,128.1,79.5"></polygon>
    <polygon id="path1358" style="fill:#ffb380;fill-opacity:1;stroke:#008000;stroke-width:0.264583;stroke-linecap:round;stroke-linejoin:miter;stroke-miterlimit:4;stroke-dasharray:none;stroke-dashoffset:0;stroke-opacity:1" points="135.5,91.7,133.3,99.6,137.1,100.6,137.1,100.6,139.2,92.9,139.2,92.9,135.5,91.7"></polygon>
    <polygon id="path1360" style="fill:#ffb380;fill-opacity:1;stroke:#008000;stroke-width:0.264583;stroke-linecap:round;stroke-linejoin:miter;stroke-miterlimit:4;stroke-dasharray:none;stroke-dashoffset:0;stroke-opacity:1" points="139.2,92.9,137.1,100.6,140.9,101.6,142.9,94.1,139.2,92.9"></polygon>
    <polygon id="path1362" style="fill:#ffb380;fill-opacity:1;stroke:#008000;stroke-width:0.264583;stroke-linecap:round;stroke-linejoin:miter;stroke-miterlimit:4;stroke-dasharray:none;stroke-dashoffset:0;stroke-opacity:1" points="142.9,94.1,140.9,101.6,140.9,101.6,144.6,102.5,144.7,102.5,146.7,94.9,142.9,94.1,142.9,94.1"></polygon>
    <polygon id="path1364" style="fill:#ffb380;fill-opacity:1;stroke:#008000;stroke-width:0.264583;stroke-linecap:round;stroke-linejoin:miter;stroke-miterlimit:4;stroke-dasharray:none;stroke-dashoffset:0;stroke-opacity:1" points="146.7,94.9,144.7,102.5,148.3,103.5,148.4,103.5,150.5,95.6,146.7,94.9"></polygon>
    <polygon id="path1366" style="fill:#ffb380;fill-opacity:1;stroke:#008000;stroke-width:0.264583;stroke-linecap:round;stroke-linejoin:miter;stroke-miterlimit:4;stroke-dasharray:none;stroke-dashoffset:0;stroke-opacity:1" points="150.5,95.6,148.4,103.5,152.1,104.4,154.2,96.6,150.5,95.6,150.5,95.6"></polygon>
    <polygon id="path1368" style="fill:#ffb380;fill-opacity:1;stroke:#008000;stroke-width:0.264583;stroke-linecap:round;stroke-linejoin:miter;stroke-miterlimit:4;stroke-dasharray:none;stroke-dashoffset:0;stroke-opacity:1" points="154.2,96.6,152.1,104.4,152.1,104.4,155.8,105.4,157.9,97.6,154.2,96.6"></polygon>
    <polygon id="path1370" style="fill:#ffb380;fill-opacity:1;stroke:#008000;stroke-width:0.264583;stroke-linecap:round;stroke-linejoin:miter;stroke-miterlimit:4;stroke-dasharray:none;stroke-dashoffset:0;stroke-opacity:1" points="157.9,97.6,155.8,105.4,155.9,105.4,159.6,106.4,161.6,98.9,158,97.6,157.9,97.6"></polygon>
    <polygon id="path1372" style="fill:#ffb380;fill-opacity:1;stroke:#008000;stroke-width:0.264583;stroke-linecap:round;stroke-linejoin:miter;stroke-miterlimit:4;stroke-dasharray:none;stroke-dashoffset:0;stroke-opacity:1" points="161.6,98.9,159.6,106.4,159.6,106.4,163.3,107.4,163.3,107.4,165.3,100.2,161.6,98.9"></polygon>
    <polygon id="path1374" style="fill:#ffb380;fill-opacity:1;stroke:#008000;stroke-width:0.264583;stroke-linecap:round;stroke-linejoin:miter;stroke-miterlimit:4;stroke-dasharray:none;stroke-dashoffset:0;stroke-opacity:1" points="165.3,100.2,163.3,107.4,167,108.3,167.1,108.3,169.1,101,165.3,100.2,165.3,100.2"></polygon>
    <polygon id="path1376" style="fill:#ffb380;fill-opacity:1;stroke:#008000;stroke-width:0.264583;stroke-linecap:round;stroke-linejoin:miter;stroke-miterlimit:4;stroke-dasharray:none;stroke-dashoffset:0;stroke-opacity:1" points="169.1,101,167.1,108.3,170.8,109.3,170.8,109.3,172.8,101.9,169.1,101"></polygon>
    <polygon id="path1378" style="fill:#ffb380;fill-opacity:1;stroke:#008000;stroke-width:0.264583;stroke-linecap:round;stroke-linejoin:miter;stroke-miterlimit:4;stroke-dasharray:none;stroke-dashoffset:0;stroke-opacity:1" points="172.8,101.9,170.8,109.3,176.3,110.4,177.5,105.2,177.5,104.5,177.3,102.8,172.8,101.9"></polygon>
    <polygon id="rect1380" style="fill:#ffb380;fill-opacity:1;stroke:#008000;stroke-width:0.264583;stroke-linecap:round;stroke-linejoin:miter;stroke-miterlimit:4;stroke-dasharray:none;stroke-dashoffset:0;stroke-opacity:1" points="166,112.4,169.7,113.4,167.7,120.9,164,119.9,166,112.4"></polygon>
    <polygon id="path1382" style="fill:#ffb380;fill-opacity:1;stroke:#008000;stroke-width:0.264583;stroke-linecap:round;stroke-linejoin:miter;stroke-miterlimit:4;stroke-dasharray:none;stroke-dashoffset:0;stroke-opacity:1" sodipodi:nodetypes="ccccc" points="169.7,113.4,175.3,114.4,173.4,122.6,167.7,120.9,169.7,113.4"></polygon>
    <polygon id="path1384" style="fill:#ffb380;fill-opacity:1;stroke:#008000;stroke-width:0.264583;stroke-linecap:round;stroke-linejoin:miter;stroke-miterlimit:4;stroke-dasharray:none;stroke-dashoffset:0;stroke-opacity:1" sodipodi:nodetypes="cccccc" points="164,119.9,163,123.6,172.4,126.1,173.4,122.6,167.7,120.9,164,119.9"></polygon>
    <polygon id="path1386" style="fill:#ffb380;fill-opacity:1;stroke:#008000;stroke-width:0.264583;stroke-linecap:round;stroke-linejoin:miter;stroke-miterlimit:4;stroke-dasharray:none;stroke-dashoffset:0;stroke-opacity:1" sodipodi:nodetypes="cccccc" points="163,123.6,172.4,126.1,171.9,128,171.4,128.5,162.1,127.1,163,123.6"></polygon>
    <polygon id="rect1388" style="fill:#ffb380;fill-opacity:1;stroke:#008000;stroke-width:0.264583;stroke-linecap:round;stroke-linejoin:miter;stroke-miterlimit:4;stroke-dasharray:none;stroke-dashoffset:0;stroke-opacity:1" points="147.3,107.5,151,108.5,149,116,145.3,115,147.3,107.5"></polygon>
    <polygon id="rect1390" style="fill:#ffb380;fill-opacity:1;stroke:#008000;stroke-width:0.264583;stroke-linecap:round;stroke-linejoin:miter;stroke-miterlimit:4;stroke-dasharray:none;stroke-dashoffset:0;stroke-opacity:1" points="151,108.5,154.8,109.5,152.8,117,149,116,151,108.5"></polygon>
    <polygon id="rect1392" style="fill:#ffb380;fill-opacity:1;stroke:#008000;stroke-width:0.264583;stroke-linecap:round;stroke-linejoin:miter;stroke-miterlimit:4;stroke-dasharray:none;stroke-dashoffset:0;stroke-opacity:1" points="154.8,109.5,158.5,110.5,156.5,118,152.8,117,154.8,109.5"></polygon>
    <polygon id="rect1394" style="fill:#ffb380;fill-opacity:1;stroke:#008000;stroke-width:0.264583;stroke-linecap:round;stroke-linejoin:miter;stroke-miterlimit:4;stroke-dasharray:none;stroke-dashoffset:0;stroke-opacity:1" points="158.5,110.5,162.2,111.5,160.2,119,156.5,118,158.5,110.5"></polygon>
    <polygon id="rect1396" style="fill:#ffb380;fill-opacity:1;stroke:#008000;stroke-width:0.264583;stroke-linecap:round;stroke-linejoin:miter;stroke-miterlimit:4;stroke-dasharray:none;stroke-dashoffset:0;stroke-opacity:1" points="145.3,115,152.8,117,151.8,121.1,144.2,119.1,145.3,115"></polygon>
    <polygon id="path1398" style="fill:#ffb380;fill-opacity:1;stroke:#008000;stroke-width:0.264583;stroke-linecap:round;stroke-linejoin:miter;stroke-miterlimit:4;stroke-dasharray:none;stroke-dashoffset:0;stroke-opacity:1" sodipodi:nodetypes="ccccc" points="144.2,119.1,151.8,121.1,150.7,125.1,143.2,123.6,144.2,119.1"></polygon>
    <polygon id="rect1400" style="fill:#ffb380;fill-opacity:1;stroke:#008000;stroke-width:0.264583;stroke-linecap:round;stroke-linejoin:miter;stroke-miterlimit:4;stroke-dasharray:none;stroke-dashoffset:0;stroke-opacity:1" points="152.8,117,160.3,119,159.3,122.7,151.9,120.7,152.8,117"></polygon>
    <polygon id="path1402" style="fill:#ffb380;fill-opacity:1;stroke:#008000;stroke-width:0.264583;stroke-linecap:round;stroke-linejoin:miter;stroke-miterlimit:4;stroke-dasharray:none;stroke-dashoffset:0;stroke-opacity:1" sodipodi:nodetypes="ccccc" points="151.9,120.7,159.3,122.7,158.3,126.4,150.7,125.1,151.9,120.7"></polygon>
    <polygon id="path1404" style="fill:#ffb380;fill-opacity:1;stroke:#008000;stroke-width:0.264583;stroke-linecap:round;stroke-linejoin:miter;stroke-miterlimit:4;stroke-dasharray:none;stroke-dashoffset:0;stroke-opacity:1" sodipodi:nodetypes="ccccccc" points="129.9,103.1,136.1,104.7,134.5,110.7,133.7,110.5,133,109.4,128.6,108,129.9,103.1"></polygon>
    <polygon id="rect1406" style="fill:#ffb380;fill-opacity:1;stroke:#008000;stroke-width:0.264583;stroke-linecap:round;stroke-linejoin:miter;stroke-miterlimit:4;stroke-dasharray:none;stroke-dashoffset:0;stroke-opacity:1" points="136.1,104.7,143.6,106.7,142.5,110.7,135,108.7,136.1,104.7"></polygon>
    <polygon id="path1408" style="fill:#ffb380;fill-opacity:1;stroke:#008000;stroke-width:0.264583;stroke-linecap:round;stroke-linejoin:miter;stroke-miterlimit:4;stroke-dasharray:none;stroke-dashoffset:0;stroke-opacity:1" sodipodi:nodetypes="ccccccc" points="135,108.7,134.5,110.7,133.7,110.5,133.3,112.6,141.4,114.7,142.5,110.7,135,108.7"></polygon>
    <polygon style="fill:#008000;stroke:#008000;stroke-width:0.264583px;stroke-linecap:butt;stroke-linejoin:miter;stroke-opacity:1" id="path1410" points="110.6,170.2,107.4,181.4,110.1,184.2,110.8,186.3,111.5,186.9,113.8,186.9,115.2,185.9,118,185.6,120.6,184.2,121.7,182.5,126.5,181.9,129.1,182.3,130.4,181,131.4,178.3,110.6,170.2"></polygon>
    <polygon id="path1412" style="fill:#ffb380;fill-opacity:1;stroke:#008000;stroke-width:0.264583;stroke-linecap:round;stroke-linejoin:miter;stroke-miterlimit:4;stroke-dasharray:none;stroke-dashoffset:0;stroke-opacity:1" sodipodi:nodetypes="ccccc" points="133.3,112.6,141.4,114.7,140.3,118.8,132.4,116.7,133.3,112.6"></polygon>
    <polygon id="path1414" style="fill:#ffb380;fill-opacity:1;stroke:#008000;stroke-width:0.264583;stroke-linecap:round;stroke-linejoin:miter;stroke-miterlimit:4;stroke-dasharray:none;stroke-dashoffset:0;stroke-opacity:1" sodipodi:nodetypes="ccccc" points="132.4,116.7,140.3,118.8,139.3,122.9,131.5,121.2,132.4,116.7"></polygon>
    <polygon id="path1416" style="fill:#ffb380;fill-opacity:1;stroke:#008000;stroke-width:0.264583;stroke-linecap:round;stroke-linejoin:miter;stroke-miterlimit:4;stroke-dasharray:none;stroke-dashoffset:0;stroke-opacity:1" points="131.4,122.1,130.9,123,130,125.2,130,125.3,137.3,128.1,137.4,128,139.1,123.6,131.4,122.1"></polygon>
    <polygon id="path1418" style="fill:#ffb380;fill-opacity:1;stroke:#008000;stroke-width:0.264583;stroke-linecap:round;stroke-linejoin:miter;stroke-miterlimit:4;stroke-dasharray:none;stroke-dashoffset:0;stroke-opacity:1" sodipodi:nodetypes="ccccc" points="130,125.3,137.3,128.1,136,131.7,128.6,128.9,130,125.3"></polygon>
    <polygon id="path1420" style="fill:#ffb380;fill-opacity:1;stroke:#008000;stroke-width:0.264583;stroke-linecap:round;stroke-linejoin:miter;stroke-miterlimit:4;stroke-dasharray:none;stroke-dashoffset:0;stroke-opacity:1" sodipodi:nodetypes="ccccc" points="128.6,128.9,136,131.7,134.6,135.3,127.3,132.5,128.6,128.9"></polygon>
    <polygon id="path1422" style="fill:#ffb380;fill-opacity:1;stroke:#008000;stroke-width:0.264583;stroke-linecap:round;stroke-linejoin:miter;stroke-miterlimit:4;stroke-dasharray:none;stroke-dashoffset:0;stroke-opacity:1" sodipodi:nodetypes="ccccc" points="127.3,132.5,134.6,135.3,133.2,138.9,125.9,136.1,127.3,132.5"></polygon>
    <polygon id="path1424" style="fill:#ffb380;fill-opacity:1;stroke:#008000;stroke-width:0.264583;stroke-linecap:round;stroke-linejoin:miter;stroke-miterlimit:4;stroke-dasharray:none;stroke-dashoffset:0;stroke-opacity:1" sodipodi:nodetypes="ccccc" points="125.9,136.1,133.2,138.9,131.7,142.8,124.4,140,125.9,136.1"></polygon>
    <polygon id="path1426" style="fill:#ffb380;fill-opacity:1;stroke:#008000;stroke-width:0.264583;stroke-linecap:round;stroke-linejoin:miter;stroke-miterlimit:4;stroke-dasharray:none;stroke-dashoffset:0;stroke-opacity:1" sodipodi:nodetypes="ccccccc" points="124.4,140,131.7,142.8,131.2,144,121.9,140.5,123.5,140.6,124.3,140.2,124.4,140"></polygon>
    <polygon id="path1428" style="fill:#ffb380;fill-opacity:1;stroke:#008000;stroke-width:0.264583;stroke-linecap:round;stroke-linejoin:miter;stroke-miterlimit:4;stroke-dasharray:none;stroke-dashoffset:0;stroke-opacity:1" sodipodi:nodetypes="ccccc" points="121.9,140.5,131.2,144,129.8,147.7,121,144.2,121.9,140.5"></polygon>
    <polygon id="path1430" style="fill:#ffb380;fill-opacity:1;stroke:#008000;stroke-width:0.264583;stroke-linecap:round;stroke-linejoin:miter;stroke-miterlimit:4;stroke-dasharray:none;stroke-dashoffset:0;stroke-opacity:1" sodipodi:nodetypes="ccccc" points="121,144.2,129.8,147.6,128.4,151.3,119.9,148,121,144.2"></polygon>
    <polygon id="path1432" style="fill:#ffb380;fill-opacity:1;stroke:#008000;stroke-width:0.264583;stroke-linecap:round;stroke-linejoin:miter;stroke-miterlimit:4;stroke-dasharray:none;stroke-dashoffset:0;stroke-opacity:1" sodipodi:nodetypes="ccccc" points="119.9,148,128.4,151.2,127,154.9,118.2,151.5,119.9,148"></polygon>
    <polygon id="path1434" style="fill:#ffb380;fill-opacity:1;stroke:#008000;stroke-width:0.264583;stroke-linecap:round;stroke-linejoin:miter;stroke-miterlimit:4;stroke-dasharray:none;stroke-dashoffset:0;stroke-opacity:1" sodipodi:nodetypes="ccccc" points="118.2,151.5,127.1,154.8,125.6,158.5,116.5,154.9,118.2,151.5"></polygon>
    <polygon id="path1436" style="fill:#ffb380;fill-opacity:1;stroke:#008000;stroke-width:0.264583;stroke-linecap:round;stroke-linejoin:miter;stroke-miterlimit:4;stroke-dasharray:none;stroke-dashoffset:0;stroke-opacity:1" sodipodi:nodetypes="ccccc" points="116.5,154.9,125.7,158.4,124.3,162,114.8,158.4,116.5,154.9"></polygon>
    <polygon id="path1438" style="fill:#ffb380;fill-opacity:1;stroke:#008000;stroke-width:0.264583;stroke-linecap:round;stroke-linejoin:miter;stroke-miterlimit:4;stroke-dasharray:none;stroke-dashoffset:0;stroke-opacity:1" sodipodi:nodetypes="cccccc" points="114.8,158.4,124.3,161.9,122.9,165.6,113.3,161.9,114,160,114.8,158.4"></polygon>
    <polygon id="path1440" style="fill:#ffb380;fill-opacity:1;stroke:#008000;stroke-width:0.264583;stroke-linecap:round;stroke-linejoin:miter;stroke-miterlimit:4;stroke-dasharray:none;stroke-dashoffset:0;stroke-opacity:1" sodipodi:nodetypes="ccccc" points="113.3,161.9,122.9,165.5,121.5,169.2,112.1,165.5,113.3,161.9"></polygon>
    <polygon id="path1442" style="fill:#ffb380;fill-opacity:1;stroke:#008000;stroke-width:0.264583;stroke-linecap:round;stroke-linejoin:miter;stroke-miterlimit:4;stroke-dasharray:none;stroke-dashoffset:0;stroke-opacity:1" points="142.8,124.7,141.4,128.3,148.7,131.1,149.4,129.4,149.7,127.8,150.6,126.2,142.8,124.7"></polygon>
    <polygon id="path1444" style="fill:#ffb380;fill-opacity:1;stroke:#008000;stroke-width:0.264583;stroke-linecap:round;stroke-linejoin:miter;stroke-miterlimit:4;stroke-dasharray:none;stroke-dashoffset:0;stroke-opacity:1" sodipodi:nodetypes="ccccc" points="141.4,128.3,148.7,131.1,147.2,134.7,140,131.9,141.4,128.3"></polygon>
    <polygon id="path1446" style="fill:#ffb380;fill-opacity:1;stroke:#008000;stroke-width:0.264583;stroke-linecap:round;stroke-linejoin:miter;stroke-miterlimit:4;stroke-dasharray:none;stroke-dashoffset:0;stroke-opacity:1" sodipodi:nodetypes="ccccc" points="140,131.9,147.2,134.7,146,138.3,138.6,135.5,140,131.9"></polygon>
    <polygon id="path1448" style="fill:#ffb380;fill-opacity:1;stroke:#008000;stroke-width:0.264583;stroke-linecap:round;stroke-linejoin:miter;stroke-miterlimit:4;stroke-dasharray:none;stroke-dashoffset:0;stroke-opacity:1" sodipodi:nodetypes="ccccc" points="138.6,135.5,146,138.3,144.6,142,137.3,139.2,138.6,135.5"></polygon>
    <polygon id="path1450" style="fill:#ffb380;fill-opacity:1;stroke:#008000;stroke-width:0.264583;stroke-linecap:round;stroke-linejoin:miter;stroke-miterlimit:4;stroke-dasharray:none;stroke-dashoffset:0;stroke-opacity:1" sodipodi:nodetypes="ccccc" points="137.3,139.2,144.6,142,143.2,145.6,135.9,142.8,137.3,139.2"></polygon>
    <polygon id="path1452" style="fill:#ffb380;fill-opacity:1;stroke:#008000;stroke-width:0.264583;stroke-linecap:round;stroke-linejoin:miter;stroke-miterlimit:4;stroke-dasharray:none;stroke-dashoffset:0;stroke-opacity:1" sodipodi:nodetypes="ccccc" points="135.9,142.8,143.2,145.6,141.8,149.2,134.5,146.4,135.9,142.8"></polygon>
    <polygon id="path1454" style="fill:#ffb380;fill-opacity:1;stroke:#008000;stroke-width:0.264583;stroke-linecap:round;stroke-linejoin:miter;stroke-miterlimit:4;stroke-dasharray:none;stroke-dashoffset:0;stroke-opacity:1" sodipodi:nodetypes="ccccc" points="134.5,146.4,141.8,149.2,140.6,152.8,133.1,150,134.5,146.4"></polygon>
    <polygon id="path1456" style="fill:#ffb380;fill-opacity:1;stroke:#008000;stroke-width:0.264583;stroke-linecap:round;stroke-linejoin:miter;stroke-miterlimit:4;stroke-dasharray:none;stroke-dashoffset:0;stroke-opacity:1" sodipodi:nodetypes="ccccc" points="133.1,150,140.6,152.8,139.2,156.4,131.7,153.6,133.1,150"></polygon>
    <polygon id="path1458" style="fill:#ffb380;fill-opacity:1;stroke:#008000;stroke-width:0.264583;stroke-linecap:round;stroke-linejoin:miter;stroke-miterlimit:4;stroke-dasharray:none;stroke-dashoffset:0;stroke-opacity:1" sodipodi:nodetypes="ccccc" points="131.7,153.6,139.2,156.4,137.9,160,130.3,157.2,131.7,153.6"></polygon>
    <polygon id="path1460" style="fill:#ffb380;fill-opacity:1;stroke:#008000;stroke-width:0.264583;stroke-linecap:round;stroke-linejoin:miter;stroke-miterlimit:4;stroke-dasharray:none;stroke-dashoffset:0;stroke-opacity:1" sodipodi:nodetypes="ccccc" points="130.3,157.2,137.9,160,136.6,163.7,128.9,160.8,130.3,157.2"></polygon>
    <polygon id="path1462" style="fill:#ffb380;fill-opacity:1;stroke:#008000;stroke-width:0.264583;stroke-linecap:round;stroke-linejoin:miter;stroke-miterlimit:4;stroke-dasharray:none;stroke-dashoffset:0;stroke-opacity:1" sodipodi:nodetypes="ccccc" points="128.9,160.8,136.6,163.7,135.3,167.3,127.5,164.4,128.9,160.8"></polygon>
    <polygon id="path1464" style="fill:#ffb380;fill-opacity:1;stroke:#008000;stroke-width:0.264583;stroke-linecap:round;stroke-linejoin:miter;stroke-miterlimit:4;stroke-dasharray:none;stroke-dashoffset:0;stroke-opacity:1" sodipodi:nodetypes="ccccc" points="127.5,164.4,135.3,167.3,134,171,126.2,168,127.5,164.4"></polygon>
    <polygon id="path1466" style="fill:#ffb380;fill-opacity:1;stroke:#008000;stroke-width:0.264583;stroke-linecap:round;stroke-linejoin:miter;stroke-miterlimit:4;stroke-dasharray:none;stroke-dashoffset:0;stroke-opacity:1" sodipodi:nodetypes="ccccc" points="126.2,168,134,171,132.8,174.6,124.8,171.6,126.2,168"></polygon>
    <polygon id="path1468" style="fill:#ffb380;fill-opacity:1;stroke:#008000;stroke-width:0.264583;stroke-linecap:round;stroke-linejoin:miter;stroke-miterlimit:4;stroke-dasharray:none;stroke-dashoffset:0;stroke-opacity:1" sodipodi:nodetypes="ccccc" points="124.8,171.6,132.8,174.6,131.4,178.3,123.4,175.2,124.8,171.6"></polygon>
  </g>
</svg>
