<!--?xml version="1.0" encoding="UTF-8" standalone="no"?-->
<svg xmlns:dc="http://purl.org/dc/elements/1.1/" xmlns:cc="http://creativecommons.org/ns#" xmlns:rdf="http://www.w3.org/1999/02/22-rdf-syntax-ns#" xmlns:svg="http://www.w3.org/2000/svg" xmlns="http://www.w3.org/2000/svg" xmlns:sodipodi="http://sodipodi.sourceforge.net/DTD/sodipodi-0.dtd" xmlns:inkscape="http://www.inkscape.org/namespaces/inkscape" inkscape:export-ydpi="96" inkscape:export-xdpi="96" inkscape:export-filename="/home/nineone/Downloads/Site plan Wijaya Kusuma- tahap 2.png" sodipodi:docname="Site plan Wijaya Kusuma- tahap 1_Canvas.svg" inkscape:version="1.0.2 (1.0.2+r75+1)" id="svg8" version="1.1" viewBox="0 0 278.34165 196.85" height="744" width="1052">
  <defs id="defs2">
    <inkscape:path-effect effect="fillet_chamfer" id="path-effect995" is_visible="true" lpeversion="1" satellites_param="F,0,0,1,0,0,0,1 @ F,0,0,1,0,1.7325138,0,1 @ F,0,0,1,0,2.8877241,0,1 @ F,0,0,1,0,0,0,1" unit="px" method="auto" mode="F" radius="0" chamfer_steps="1" flexible="false" use_knot_distance="true" apply_no_radius="true" apply_with_radius="true" only_selected="false" hide_knots="false"></inkscape:path-effect>
    <inkscape:path-effect effect="fillet_chamfer" id="path-effect1178" is_visible="true" lpeversion="1" satellites_param="F,0,0,1,0,0,0,1 @ F,0,0,1,0,0,0,1 @ F,0,0,1,0,0,0,1 @ F,0,0,1,0,0,0,1" unit="px" method="auto" mode="F" radius="0" chamfer_steps="1" flexible="false" use_knot_distance="true" apply_no_radius="true" apply_with_radius="true" only_selected="false" hide_knots="false"></inkscape:path-effect>
    <inkscape:path-effect effect="fillet_chamfer" id="path-effect1176" is_visible="true" lpeversion="1" satellites_param="F,0,0,1,0,0,0,1 @ F,0,0,1,0,0,0,1 @ F,0,0,1,0,0,0,1 @ F,0,0,1,0,0,0,1" unit="px" method="auto" mode="F" radius="0" chamfer_steps="1" flexible="false" use_knot_distance="true" apply_no_radius="true" apply_with_radius="true" only_selected="false" hide_knots="false"></inkscape:path-effect>
  </defs>
  <sodipodi:namedview id="base" pagecolor="#ffffff" bordercolor="#666666" borderopacity="1.0" inkscape:pageopacity="0.0" inkscape:pageshadow="2" inkscape:zoom="0.35355339" inkscape:cx="117.19414" inkscape:cy="390.66833" inkscape:document-units="px" inkscape:current-layer="layer4" showgrid="false" inkscape:window-width="1366" inkscape:window-height="711" inkscape:window-x="0" inkscape:window-y="0" inkscape:window-maximized="1" inkscape:document-rotation="0" units="px" inkscape:snap-bbox="false" inkscape:snap-intersection-paths="false" inkscape:snap-smooth-nodes="true"></sodipodi:namedview>
  <metadata id="metadata5">
    <rdf:rdf>
      <cc:work rdf:about="">
        <dc:format>image/svg+xml</dc:format>
        <dc:type rdf:resource="http://purl.org/dc/dcmitype/StillImage"></dc:type>
        <dc:title></dc:title>
      </cc:work>
    </rdf:rdf>
  </metadata>
  <g inkscape:groupmode="layer" id="layer4" inkscape:label="fill" style="display:inline">
    <polygon id="path1168" style="fill:#ffb380;fill-opacity:1;stroke:#008000;stroke-width:0.264583;stroke-linecap:round;stroke-opacity:1" points="155.5,40.4,152.8,54.3,159.2,55.4,161.8,41.6,155.6,40.4,155.5,40.4"></polygon>
    <polygon id="rect1171" style="fill:#ffb380;fill-opacity:1;stroke:#008000;stroke-width:0.264583;stroke-linecap:round;stroke-opacity:1" points="143.4,60.4,148.7,61.8,145.9,72.3,140.6,70.9,143.4,60.4"></polygon>
    <polygon id="rect1174" style="fill:#ffb380;fill-opacity:1;stroke:#008000;stroke-width:0.264583;stroke-linecap:round;stroke-opacity:1" points="135.3,69.5,140.6,70.9,137.8,81.5,132.4,80,135.3,69.5"></polygon>
    <polygon id="rect1176" style="fill:#ffb380;fill-opacity:1;stroke:#008000;stroke-width:0.264583;stroke-linecap:round;stroke-opacity:1" points="138.1,58.9,143.4,60.4,140.6,70.9,135.3,69.5,138.1,58.9"></polygon>
    <polygon id="rect1178" style="fill:#ffb380;fill-opacity:1;stroke:#008000;stroke-width:0.264583;stroke-linecap:round;stroke-opacity:1" points="130,68.1,135.3,69.5,132.4,80,127.1,78.6,130,68.1"></polygon>
    <polygon id="rect1180" style="fill:#ffb380;fill-opacity:1;stroke:#008000;stroke-width:0.264583;stroke-linecap:round;stroke-opacity:1" points="132.8,57.5,138.1,58.9,135.3,69.5,130,68.1,132.8,57.5"></polygon>
    <polygon id="rect1182" style="fill:#ffb380;fill-opacity:1;stroke:#008000;stroke-width:0.264583;stroke-linecap:round;stroke-opacity:1" points="124.6,66.6,130,68.1,127.1,78.6,121.8,77.2,124.6,66.6"></polygon>
    <polygon id="rect1184" style="fill:#ffb380;fill-opacity:1;stroke:#008000;stroke-width:0.264583;stroke-linecap:round;stroke-opacity:1" points="127.5,56.1,132.8,57.5,130,68.1,124.6,66.6,127.5,56.1"></polygon>
    <polygon id="rect1186" style="fill:#ffb380;fill-opacity:1;stroke:#008000;stroke-width:0.264583;stroke-linecap:round;stroke-opacity:1" points="119.3,65.2,124.6,66.6,121.8,77.2,116.5,75.8,119.3,65.2"></polygon>
    <polygon id="rect1188" style="fill:#ffb380;fill-opacity:1;stroke:#008000;stroke-width:0.264583;stroke-linecap:round;stroke-opacity:1" points="111.5,51.8,116.8,53.2,114,63.8,108.7,62.4,111.5,51.8"></polygon>
    <polygon id="rect1190" style="fill:#ffb380;fill-opacity:1;stroke:#008000;stroke-width:0.264583;stroke-linecap:round;stroke-opacity:1" points="108.7,62.4,114,63.8,111.2,74.3,105.9,72.9,108.7,62.4"></polygon>
    <polygon id="rect1192" style="fill:#ffb380;fill-opacity:1;stroke:#008000;stroke-width:0.264583;stroke-linecap:round;stroke-opacity:1" points="106.2,50.4,111.5,51.8,108.7,62.4,103.4,60.9,106.2,50.4"></polygon>
    <polygon id="rect1194" style="fill:#ffb380;fill-opacity:1;stroke:#008000;stroke-width:0.264583;stroke-linecap:round;stroke-opacity:1" points="103.4,60.9,108.7,62.4,105.9,72.9,100.6,71.5,103.4,60.9"></polygon>
    <polygon id="rect1196" style="fill:#ffb380;fill-opacity:1;stroke:#008000;stroke-width:0.264583;stroke-linecap:round;stroke-opacity:1" points="100.9,49,106.2,50.4,103.4,60.9,98.1,59.5,100.9,49"></polygon>
    <polygon id="rect1198" style="fill:#ffb380;fill-opacity:1;stroke:#008000;stroke-width:0.264583;stroke-linecap:round;stroke-opacity:1" points="98.1,59.5,103.4,60.9,100.6,71.5,95.2,70.1,98.1,59.5"></polygon>
    <polygon id="rect1200" style="fill:#ffb380;fill-opacity:1;stroke:#008000;stroke-width:0.264583;stroke-linecap:round;stroke-opacity:1" points="95.6,47.5,100.9,49,98.1,59.5,92.7,58.1,95.6,47.5"></polygon>
    <polygon id="rect1202" style="fill:#ffb380;fill-opacity:1;stroke:#008000;stroke-width:0.264583;stroke-linecap:round;stroke-opacity:1" points="92.7,58.1,98.1,59.5,95.2,70.1,89.9,68.6,92.7,58.1"></polygon>
    <polygon id="rect1204" style="fill:#ffb380;fill-opacity:1;stroke:#008000;stroke-width:0.264583;stroke-linecap:round;stroke-opacity:1" points="116.8,53.2,122.2,54.7,119.3,65.2,114,63.8,116.8,53.2"></polygon>
    <polygon id="rect1206" style="fill:#ffb380;fill-opacity:1;stroke:#008000;stroke-width:0.264583;stroke-linecap:round;stroke-opacity:1" points="122.2,54.7,127.5,56.1,124.6,66.6,119.3,65.2,122.2,54.7"></polygon>
    <polygon id="rect1208" style="fill:#ffb380;fill-opacity:1;stroke:#008000;stroke-width:0.264583;stroke-linecap:round;stroke-opacity:1" points="114,63.8,119.3,65.2,116.5,75.8,111.2,74.3,114,63.8"></polygon>
    <polygon id="rect1210" style="fill:#ffb380;fill-opacity:1;stroke:#008000;stroke-width:0.264583;stroke-linecap:round;stroke-opacity:1" points="140.6,70.9,145.9,72.3,143.1,82.9,137.8,81.5,140.6,70.9"></polygon>
    <polygon id="rect1212" style="fill:#ffb380;fill-opacity:1;stroke:#008000;stroke-width:0.264583;stroke-linecap:round;stroke-opacity:1" points="136.3,87.1,141.6,88.6,138.7,99.1,133.4,97.7,136.3,87.1"></polygon>
    <polygon id="rect1214" style="fill:#ffb380;fill-opacity:1;stroke:#008000;stroke-width:0.264583;stroke-linecap:round;stroke-opacity:1" points="128.1,96.3,133.4,97.7,130.6,108.2,125.3,106.8,128.1,96.3"></polygon>
    <polygon id="rect1216" style="fill:#ffb380;fill-opacity:1;stroke:#008000;stroke-width:0.264583;stroke-linecap:round;stroke-opacity:1" points="130.9,85.7,136.3,87.1,133.4,97.7,128.1,96.3,130.9,85.7"></polygon>
    <polygon id="rect1218" style="fill:#ffb380;fill-opacity:1;stroke:#008000;stroke-width:0.264583;stroke-linecap:round;stroke-opacity:1" points="122.8,94.8,128.1,96.3,125.3,106.8,120,105.4,122.8,94.8"></polygon>
    <polygon id="rect1220" style="fill:#ffb380;fill-opacity:1;stroke:#008000;stroke-width:0.264583;stroke-linecap:round;stroke-opacity:1" points="125.6,84.3,130.9,85.7,128.1,96.3,122.8,94.8,125.6,84.3"></polygon>
    <polygon id="rect1222" style="fill:#ffb380;fill-opacity:1;stroke:#008000;stroke-width:0.264583;stroke-linecap:round;stroke-opacity:1" points="117.5,93.4,122.8,94.8,120,105.4,114.7,104,117.5,93.4"></polygon>
    <polygon id="rect1224" style="fill:#ffb380;fill-opacity:1;stroke:#008000;stroke-width:0.264583;stroke-linecap:round;stroke-opacity:1" points="120.3,82.9,125.6,84.3,122.8,94.8,117.5,93.4,120.3,82.9"></polygon>
    <polygon id="rect1226" style="fill:#ffb380;fill-opacity:1;stroke:#008000;stroke-width:0.264583;stroke-linecap:round;stroke-opacity:1" points="112.2,92,117.5,93.4,114.7,104,109.3,102.5,112.2,92"></polygon>
    <polygon id="rect1228" style="fill:#ffb380;fill-opacity:1;stroke:#008000;stroke-width:0.264583;stroke-linecap:round;stroke-opacity:1" points="104.4,78.6,109.7,80,106.9,90.6,101.5,89.1,104.4,78.6"></polygon>
    <polygon id="rect1230" style="fill:#ffb380;fill-opacity:1;stroke:#008000;stroke-width:0.264583;stroke-linecap:round;stroke-opacity:1" points="101.5,89.1,106.9,90.6,104,101.1,98.7,99.7,101.5,89.1"></polygon>
    <polygon id="rect1232" style="fill:#ffb380;fill-opacity:1;stroke:#008000;stroke-width:0.264583;stroke-linecap:round;stroke-opacity:1" points="99,77.2,104.4,78.6,101.5,89.1,96.2,87.7,99,77.2"></polygon>
    <polygon id="rect1234" style="fill:#ffb380;fill-opacity:1;stroke:#008000;stroke-width:0.264583;stroke-linecap:round;stroke-opacity:1" points="96.2,87.7,101.5,89.1,98.7,99.7,93.4,98.3,96.2,87.7"></polygon>
    <polygon id="rect1236" style="fill:#ffb380;fill-opacity:1;stroke:#008000;stroke-width:0.264583;stroke-linecap:round;stroke-opacity:1" points="93.7,75.7,99,77.2,96.2,87.7,90.9,86.3,93.7,75.7"></polygon>
    <polygon id="rect1239" style="fill:#ffb380;fill-opacity:1;stroke:#008000;stroke-width:0.264583;stroke-linecap:round;stroke-opacity:1" points="90.9,86.3,96.2,87.7,93.4,98.3,88.1,96.8,90.9,86.3"></polygon>
    <polygon id="rect1241" style="fill:#ffb380;fill-opacity:1;stroke:#008000;stroke-width:0.264583;stroke-linecap:round;stroke-opacity:1" points="88.4,74.3,93.7,75.7,90.9,86.3,85.6,84.9,88.4,74.3"></polygon>
    <polygon id="rect1243" style="fill:#ffb380;fill-opacity:1;stroke:#008000;stroke-width:0.264583;stroke-linecap:round;stroke-opacity:1" points="85.6,84.9,90.9,86.3,88.1,96.8,82.8,95.4,85.6,84.9"></polygon>
    <polygon id="rect1245" style="fill:#ffb380;fill-opacity:1;stroke:#008000;stroke-width:0.264583;stroke-linecap:round;stroke-opacity:1" points="109.7,80,115,81.4,112.2,92,106.8,90.6,109.7,80"></polygon>
    <polygon id="rect1247" style="fill:#ffb380;fill-opacity:1;stroke:#008000;stroke-width:0.264583;stroke-linecap:round;stroke-opacity:1" points="115,81.4,120.3,82.9,117.5,93.4,112.2,92,115,81.4"></polygon>
    <polygon id="rect1249" style="fill:#ffb380;fill-opacity:1;stroke:#008000;stroke-width:0.264583;stroke-linecap:round;stroke-opacity:1" points="106.8,90.6,112.2,92,109.3,102.5,104,101.1,106.8,90.6"></polygon>
    <polygon id="rect1251" style="fill:#ffb380;fill-opacity:1;stroke:#008000;stroke-width:0.264583;stroke-linecap:round;stroke-opacity:1" points="133.4,97.7,138.7,99.1,135.9,109.7,130.6,108.2,133.4,97.7"></polygon>
    <polygon id="path1253" style="fill:#ffb380;fill-opacity:1;stroke:#008000;stroke-width:0.264583;stroke-linecap:round;stroke-opacity:1" points="141.6,88.6,146.2,89.9,144.7,100.7,138.7,99.1,141.6,88.6"></polygon>
    <polygon id="path1255" style="fill:#ffb380;fill-opacity:1;stroke:#008000;stroke-width:0.264583;stroke-linecap:round;stroke-opacity:1" points="138.7,99.1,144.7,100.7,143.1,111.6,135.9,109.7,138.7,99.1"></polygon>
    <polygon id="path1257" style="fill:#008000;fill-opacity:1;stroke:#008000;stroke-width:0.264583;stroke-linecap:round;stroke-opacity:1" points="150.8,62.1,157,62.8,157.7,63,158.7,64,159,64.7,161.3,83.2,161.2,84.2,160.6,85,159.8,85.5,158.8,85.6,148.7,84,150.8,62.1"></polygon>
    <polygon id="path1259" style="fill:#ffb380;fill-opacity:1;stroke:#008000;stroke-width:0.264583;stroke-linecap:round;stroke-opacity:1" points="136.8,36.8,134.1,47.1,140.8,49.6,143,38,136.8,36.8"></polygon>
    <polygon id="path1261" style="fill:#ffb380;fill-opacity:1;stroke:#008000;stroke-width:0.264583;stroke-linecap:round;stroke-opacity:1" points="143,38,140.8,49.6,140.6,50.7,146.6,52.7,146.7,52.7,149.3,39.2,143,38,143,38"></polygon>
    <polygon id="path1263" style="fill:#ffb380;fill-opacity:1;stroke:#008000;stroke-width:0.264583;stroke-linecap:round;stroke-opacity:1" points="149.3,39.2,146.7,52.7,150.3,53.9,152.8,54.3,152.8,54.3,155.5,40.4,149.3,39.2,149.3,39.2"></polygon>
    <polygon id="path1265" style="fill:#ffb380;fill-opacity:1;stroke:#008000;stroke-width:0.264583;stroke-linecap:round;stroke-opacity:1" points="84.2,102,81.3,112.8,86.4,114.4,89.4,103.4,89.3,103.4,84.2,102"></polygon>
    <polygon id="path1267" style="fill:#ffb380;fill-opacity:1;stroke:#008000;stroke-width:0.264583;stroke-linecap:round;stroke-opacity:1" points="89.4,103.4,86.4,114.4,86.5,114.4,91.8,115.9,94.8,104.8,94.7,104.8,89.4,103.4"></polygon>
    <polygon id="path1269" style="fill:#ffb380;fill-opacity:1;stroke:#008000;stroke-width:0.264583;stroke-linecap:round;stroke-opacity:1" points="94.8,104.8,91.8,115.9,91.9,115.9,97.2,117,100.1,106.1,100,106.1,94.8,104.8"></polygon>
    <polygon id="path1271" style="fill:#ffb380;fill-opacity:1;stroke:#008000;stroke-width:0.264583;stroke-linecap:round;stroke-opacity:1" points="100.1,106.1,97.2,117,97.3,117,102.5,117.9,105.3,107.4,105.3,107.4,100.1,106.1"></polygon>
    <polygon id="path1273" style="fill:#ffb380;fill-opacity:1;stroke:#008000;stroke-width:0.264583;stroke-linecap:round;stroke-opacity:1" points="105.3,107.4,102.5,117.9,102.6,117.9,107.8,119.3,110.6,108.8,105.3,107.4"></polygon>
    <polygon id="path1275" style="fill:#ffb380;fill-opacity:1;stroke:#008000;stroke-width:0.264583;stroke-linecap:round;stroke-opacity:1" points="110.6,108.8,107.8,119.3,107.9,119.3,113,120.6,115.8,110.2,110.6,108.8,110.6,108.8"></polygon>
    <polygon id="path1277" style="fill:#ffb380;fill-opacity:1;stroke:#008000;stroke-width:0.264583;stroke-linecap:round;stroke-opacity:1" points="115.8,110.2,113,120.6,113.2,120.7,118.2,122.3,121.1,111.6,115.9,110.3,115.8,110.2"></polygon>
    <polygon id="path1279" style="fill:#ffb380;fill-opacity:1;stroke:#008000;stroke-width:0.264583;stroke-linecap:round;stroke-opacity:1" points="121.1,111.6,118.2,122.3,118.4,122.3,123.3,124.1,126.3,113,121.2,111.6,121.1,111.6"></polygon>
    <polygon id="path1281" style="fill:#ffb380;fill-opacity:1;stroke:#008000;stroke-width:0.264583;stroke-linecap:round;stroke-opacity:1" points="126.3,113,123.3,124.1,123.5,124.2,128.6,125.3,131.6,114.4,126.4,113,126.3,113"></polygon>
    <polygon id="path1283" style="fill:#ffb380;fill-opacity:1;stroke:#008000;stroke-width:0.264583;stroke-linecap:round;stroke-opacity:1" points="131.6,114.4,128.6,125.3,128.8,125.4,133.9,126.4,136.8,115.7,131.6,114.4,131.6,114.4"></polygon>
    <polygon id="path1285" style="fill:#ffb380;fill-opacity:1;stroke:#008000;stroke-width:0.264583;stroke-linecap:round;stroke-opacity:1" points="136.8,115.7,133.9,126.4,134.2,126.5,140.6,127.8,142.2,117.1,136.9,115.7,136.8,115.7"></polygon>
    <polygon id="path1287" style="fill:#ffb380;fill-opacity:1;stroke:#008000;stroke-width:0.264583;stroke-linecap:round;stroke-opacity:1" points="190.8,68.6,197,69.6,194.6,80.4,189.2,79.5,190.8,68.6"></polygon>
    <polygon id="path1289" style="fill:#ffb380;fill-opacity:1;stroke:#008000;stroke-width:0.264583;stroke-linecap:round;stroke-opacity:1" points="185.4,67.8,190.8,68.6,189.2,79.5,188.2,79.3,183.8,78.6,184.6,73.2,185.4,67.8"></polygon>
    <polygon id="path1291" style="fill:#ffb380;fill-opacity:1;stroke:#008000;stroke-width:0.264583;stroke-linecap:round;stroke-opacity:1" points="188.2,79.3,194.6,80.4,192.2,91,186.8,90.2,188.2,79.3"></polygon>
    <polygon id="path1293" style="fill:#ffb380;fill-opacity:1;stroke:#008000;stroke-width:0.264583;stroke-linecap:round;stroke-opacity:1" points="182.8,78.5,188.2,79.3,186.8,90.2,181.4,89.4,182.1,83.9,182.8,78.5"></polygon>
    <polygon id="path1295" style="fill:#ffb380;fill-opacity:1;stroke:#008000;stroke-width:0.264583;stroke-linecap:round;stroke-opacity:1" points="165.9,64.7,185.4,67.8,184.6,73.2,166.5,70.4,165.9,64.7"></polygon>
    <polygon id="path1297" style="fill:#ffb380;fill-opacity:1;stroke:#008000;stroke-width:0.264583;stroke-linecap:round;stroke-opacity:1" points="166.5,70.4,184.6,73.2,183.8,78.6,167,75.9,166.5,70.4"></polygon>
    <polygon id="path1299" style="fill:#ffb380;fill-opacity:1;stroke:#008000;stroke-width:0.264583;stroke-linecap:round;stroke-opacity:1" points="167,75.9,182.8,78.5,182.1,83.9,167.5,81.7,167,75.9"></polygon>
    <polygon id="path1301" style="fill:#ffb380;fill-opacity:1;stroke:#008000;stroke-width:0.264583;stroke-linecap:round;stroke-opacity:1" points="167.5,81.7,182.1,83.9,181.4,89.4,168,87.3,167.5,81.7"></polygon>
    <polygon id="path1303" style="fill:#ffb380;fill-opacity:1;stroke:#008000;stroke-width:0.264583;stroke-linecap:round;stroke-opacity:1" points="184.1,95.3,190.7,96.3,188.2,106.9,182.9,106.1,184.1,95.3"></polygon>
    <polygon id="path1305" style="fill:#ffb380;fill-opacity:1;stroke:#008000;stroke-width:0.264583;stroke-linecap:round;stroke-opacity:1" points="181.4,106,188.2,106.9,184.8,117.5,179.6,116.7,180.5,111.4,181.4,106"></polygon>
    <polygon id="path1307" style="fill:#ffb380;fill-opacity:1;stroke:#008000;stroke-width:0.264583;stroke-linecap:round;stroke-opacity:1" points="178.9,94.5,184.1,95.3,182.9,106.1,177.4,105.3,178.1,99.9,178.9,94.5"></polygon>
    <polygon id="path1309" style="fill:#ffb380;fill-opacity:1;stroke:#008000;stroke-width:0.264583;stroke-linecap:round;stroke-opacity:1" points="167,92.6,178.9,94.5,178.1,99.9,166.2,98,167,92.6"></polygon>
    <polygon id="path1311" style="fill:#ffb380;fill-opacity:1;stroke:#008000;stroke-width:0.264583;stroke-linecap:round;stroke-opacity:1" points="166.3,98,178.1,99.9,177.4,105.3,165.5,103.4,166.3,98"></polygon>
    <polygon id="path1313" style="fill:#ffb380;fill-opacity:1;stroke:#008000;stroke-width:0.264583;stroke-linecap:round;stroke-opacity:1" points="165.4,103.4,181.4,106,180.5,111.4,164.5,108.8,165.4,103.4"></polygon>
    <polygon id="path1315" style="fill:#ffb380;fill-opacity:1;stroke:#008000;stroke-width:0.264583;stroke-linecap:round;stroke-opacity:1" points="164.5,108.8,180.5,111.4,179.6,116.7,163.7,114.3,164.5,108.8"></polygon>
    <polygon id="path1317" style="fill:#ffb380;fill-opacity:1;stroke:#008000;stroke-width:0.264583;stroke-linecap:round;stroke-opacity:1" points="177,121.8,183.4,122.8,181.2,133.5,175.9,132.6,176.4,127.3,177,121.8"></polygon>
    <polygon id="path1319" style="fill:#ffb380;fill-opacity:1;stroke:#008000;stroke-width:0.264583;stroke-linecap:round;stroke-opacity:1" points="174.9,132.5,181.2,133.5,178.4,144.1,172.9,143.3,173.9,137.9,174.9,132.5"></polygon>
    <polygon id="path1321" style="fill:#ffb380;fill-opacity:1;stroke:#008000;stroke-width:0.264583;stroke-linecap:round;stroke-opacity:1" points="162.7,119.6,177,121.8,176.4,127.3,161.9,125,162.7,119.6"></polygon>
    <polygon id="path1323" style="fill:#ffb380;fill-opacity:1;stroke:#008000;stroke-width:0.264583;stroke-linecap:round;stroke-opacity:1" points="161.9,125,176.4,127.3,175.9,132.6,161,130.4,161.9,125"></polygon>
    <polygon id="path1325" style="fill:#ffb380;fill-opacity:1;stroke:#008000;stroke-width:0.264583;stroke-linecap:round;stroke-opacity:1" points="161,130.4,174.9,132.5,173.9,137.9,160.2,135.8,161,130.4"></polygon>
    <polygon id="path1327" style="fill:#ffb380;fill-opacity:1;stroke:#008000;stroke-width:0.264583;stroke-linecap:round;stroke-opacity:1" points="160.2,135.8,173.9,137.9,172.9,143.3,159.4,141.1,160.2,135.8"></polygon>
    <polygon id="path1329" style="fill:#ffb380;fill-opacity:1;stroke:#008000;stroke-width:0.264583;stroke-linecap:round;stroke-opacity:1" points="171.5,148.5,176.9,149.2,174.7,160,169.7,159.3,170.6,153.8,171.5,148.5"></polygon>
    <polygon id="path1331" style="fill:#ffb380;fill-opacity:1;stroke:#008000;stroke-width:0.264583;stroke-linecap:round;stroke-opacity:1" points="158.4,146.6,171.5,148.5,170.6,153.8,157.6,152.1,158.4,146.6"></polygon>
    <polygon id="path1333" style="fill:#ffb380;fill-opacity:1;stroke:#008000;stroke-width:0.264583;stroke-linecap:round;stroke-opacity:1" points="157.6,152.1,170.6,153.8,169.7,159.3,156.7,157.5,157.6,152.1"></polygon>
    <polygon id="path1335" style="fill:#ffb380;fill-opacity:1;stroke:#008000;stroke-width:0.264583;stroke-linecap:round;stroke-opacity:1" points="139.4,144,151.9,146,151,151.4,138.2,149.5,139.4,144"></polygon>
    <polygon id="path1337" style="fill:#ffb380;fill-opacity:1;stroke:#008000;stroke-width:0.264583;stroke-linecap:round;stroke-opacity:1" points="138.2,149.5,151,151.4,150.2,156.8,137.1,154.9,138.2,149.5"></polygon>
    <polygon id="path1339" style="fill:#ffb380;fill-opacity:1;stroke:#008000;stroke-width:0.264583;stroke-linecap:round;stroke-opacity:1" points="143.8,117.2,156.1,119,155.3,124.4,142.9,122.5,143.8,117.2"></polygon>
    <polygon id="path1341" style="fill:#ffb380;fill-opacity:1;stroke:#008000;stroke-width:0.264583;stroke-linecap:round;stroke-opacity:1" points="142.9,122.5,155.3,124.4,154.4,129.8,141.9,127.9,142.9,122.5"></polygon>
    <polygon id="path1343" style="fill:#ffb380;fill-opacity:1;stroke:#008000;stroke-width:0.264583;stroke-linecap:round;stroke-opacity:1" points="141.9,127.9,142.2,129.1,142.1,131.8,141.7,133.3,153.5,135.2,154.4,129.8,141.9,127.9"></polygon>
    <polygon id="path1345" style="fill:#ffb380;fill-opacity:1;stroke:#008000;stroke-width:0.264583;stroke-linecap:round;stroke-opacity:1" points="141.7,133.3,153.5,135.2,152.7,140.5,140.6,138.7,141.7,133.3"></polygon>
    <polygon id="path1347" style="fill:#ffb380;fill-opacity:1;stroke:#008000;stroke-width:0.264583;stroke-linecap:round;stroke-opacity:1" points="147.9,89.6,160.5,91.7,159.7,97.1,147.2,95.1,147.9,89.6"></polygon>
    <polygon id="path1349" style="fill:#ffb380;fill-opacity:1;stroke:#008000;stroke-width:0.264583;stroke-linecap:round;stroke-opacity:1" points="147.2,95.1,159.7,97.1,158.8,102.4,146.4,100.5,147.2,95.1"></polygon>
    <polygon id="path1351" style="fill:#ffb380;fill-opacity:1;stroke:#008000;stroke-width:0.264583;stroke-linecap:round;stroke-opacity:1" points="146.4,100.5,158.8,102.4,158,107.8,145.5,105.9,146.4,100.5"></polygon>
    <polygon id="path1353" style="fill:#ffb380;fill-opacity:1;stroke:#008000;stroke-width:0.264583;stroke-linecap:round;stroke-opacity:1" points="145.5,105.9,158,107.8,157,113.2,144.5,111.3,145.5,105.9"></polygon>
  </g>
</svg>
